<svg width="114" height="19" viewBox="0 0 114 19" fill="none" xmlns="http://www.w3.org/2000/svg">
<path d="M107.82 8.72346C108.474 8.0256 109.443 7.65564 110.393 7.65564C113.284 7.65564 114 9.61759 114 12.1248V17.9236C114 18.077 113.894 18.1846 113.747 18.1846H111.933C111.786 18.1846 111.658 18.077 111.658 17.9236V12.3654C111.658 10.8607 111.469 9.83645 109.845 9.83645C107.799 9.83645 107.799 11.7969 107.799 13.4769V17.9236C107.799 18.077 107.672 18.1846 107.525 18.1846H105.711C105.562 18.1846 105.436 18.077 105.436 17.9236V8.20007C105.436 8.09103 105.562 7.96018 105.711 7.96018H107.525C107.672 7.96018 107.799 8.09103 107.799 8.20007L107.82 8.72346Z" fill="#1B1D27"/>
<path d="M104.149 12.7565C104.149 15.8308 101.829 18.1846 98.8545 18.1846C95.9018 18.1846 93.5596 15.8308 93.5596 12.7565C93.5596 9.70415 95.9018 7.32776 98.8545 7.32776C101.828 7.32776 104.149 9.70415 104.149 12.7565ZM95.9215 12.7565C95.9215 14.4561 97.2292 15.8954 98.8536 15.8954C100.52 15.8954 101.828 14.4561 101.828 12.7565C101.828 11.0555 100.52 9.63873 98.8536 9.63873C97.2292 9.63873 95.9215 11.0563 95.9215 12.7565Z" fill="#1B1D27"/>
<path d="M87.7769 10.184H86.0897C85.9421 10.184 85.8157 10.1186 85.8157 9.96524V8.20016C85.8157 8.09121 85.9421 7.96036 86.0897 7.96036H86.4685C87.7769 7.96036 87.7769 6.97822 87.7769 6.4556V5.34408C87.7769 5.19142 87.9039 5.10419 88.0525 5.10419H89.8649C90.0126 5.10419 90.1191 5.19142 90.1191 5.34408V7.96105H92.3342C92.481 7.96105 92.6081 8.09189 92.6081 8.20093V9.96593C92.6081 10.1193 92.481 10.1847 92.3342 10.1847H90.1191V13.4545C90.1191 14.2825 90.0555 15.6564 91.0051 15.8751C91.5323 15.9406 91.8491 15.8097 92.1651 15.6782C92.1651 15.6782 92.2716 15.6353 92.3342 15.6353C92.481 15.6353 92.6081 15.7443 92.6081 15.8751V17.7281C92.6081 17.7936 92.524 17.9244 92.4184 17.9455H92.4398C91.9968 18.1425 91.4052 18.1853 90.9416 18.1853C88.4096 18.1853 87.776 16.3549 87.776 14.1095L87.7769 10.184Z" fill="#1B1D27"/>
<path d="M78.0123 13.5844C78.1185 15.0238 79.1093 16.0262 80.5654 16.0262C81.8317 16.0262 82.4001 15.3291 83.0551 14.2387C83.1394 14.1296 83.2448 14.0867 83.3924 14.1732L84.932 15.0666C85.0375 15.1546 85.1225 15.2637 85.0585 15.3945V15.3719C84.131 17.161 82.4851 18.1845 80.5443 18.1845C77.5282 18.1845 75.6709 15.8307 75.6709 12.8218C75.6709 9.70405 77.3167 7.32843 80.5021 7.32843C83.6875 7.32843 85.2061 10.0094 85.2061 13.0392V13.346C85.2061 13.4979 85.0796 13.5844 84.932 13.5844H78.0123ZM82.8021 11.5359C82.5063 10.4244 81.7038 9.46485 80.5021 9.46485C79.3841 9.46485 78.4776 10.468 78.1817 11.5359H82.8021Z" fill="#1B1D27"/>
<path d="M74.1573 17.9235C74.1573 18.0769 74.0308 18.1845 73.9044 18.1845H72.0899C71.9424 18.1845 71.8152 18.0769 71.8152 17.9235V1.28907C71.8152 1.18003 71.9424 1.04919 72.0899 1.04919H73.9044C74.0308 1.04919 74.1573 1.18003 74.1573 1.28907V17.9235Z" fill="#1B1D27"/>
<path d="M60.3288 0.961327C60.3288 0.853016 60.4553 0.722168 60.6029 0.722168H62.4384C62.5859 0.722168 62.7117 0.853016 62.7117 0.961327V8.72355C63.4932 7.85122 64.5051 7.32783 65.7285 7.32783C68.6188 7.32783 70.4114 9.85757 70.4114 12.6912C70.4114 15.6134 68.7235 18.186 65.6435 18.186C64.5254 18.186 63.4488 17.6183 62.6899 16.8114V17.5965C62.6899 17.7484 62.5641 17.8574 62.4166 17.8574H60.6022C60.4546 17.8574 60.3281 17.7484 60.3281 17.5965L60.3288 0.961327ZM68.0918 12.7355C68.0918 10.9908 67.0784 9.50864 65.2858 9.50864C63.5986 9.50864 62.5859 11.0788 62.5859 12.7355C62.5859 14.4365 63.5557 16.0263 65.2858 16.0263C67.0995 16.027 68.0918 14.523 68.0918 12.7355Z" fill="#1B1D27"/>
<path d="M48.1149 14.1741L46.4269 18.0115C46.3847 18.077 46.2372 18.186 46.1739 18.186H44.1058C43.8958 18.186 43.7903 18.0115 43.8528 17.8153L51.2152 1.22374C51.3417 1.02674 51.6157 1.02674 51.7212 1.22374C54.1056 6.60884 56.6999 12.4309 59.0835 17.816C59.1468 18.0123 59.0407 18.1868 58.8306 18.1868H56.7618C56.6775 18.1868 56.5509 18.0777 56.5087 18.0123C55.981 16.7685 55.3697 15.4397 54.8215 14.1748L48.1149 14.1741ZM51.4682 6.34715L49.0853 11.8624H53.8525L51.4682 6.34715Z" fill="#1B1D27"/>
<path d="M3.02759 17.9236C3.02759 18.0755 2.89964 18.1846 2.77171 18.1846H0.943466C0.794444 18.1846 0.666504 18.0755 0.666504 17.9236V1.23612C0.666504 1.12708 0.794444 0.996232 0.943466 0.996232H2.77243C2.90037 0.996232 3.02831 1.12708 3.02831 1.23612L3.02759 17.9236ZM7.81299 17.9236C7.81299 18.0755 7.68506 18.1846 7.55711 18.1846H5.72887C5.57986 18.1846 5.45264 18.0755 5.45264 17.9236V1.23612C5.45264 1.12708 5.57986 0.996232 5.72887 0.996232H7.55784C7.68578 0.996232 7.81373 1.12708 7.81373 1.23612L7.81299 17.9236ZM12.5984 17.9236C12.5984 18.0755 12.4712 18.1846 12.3425 18.1846H10.5135C10.3646 18.1846 10.2373 18.0755 10.2373 17.9236V1.23612C10.2373 1.12708 10.3646 0.996232 10.5135 0.996232H12.3425C12.4712 0.996232 12.5984 1.12708 12.5984 1.23612V17.9236ZM17.4049 17.9236C17.4049 18.0755 17.277 18.1846 17.1497 18.1846H15.3208C15.1717 18.1846 15.0438 18.0755 15.0438 17.9236V1.23612C15.0438 1.12708 15.1717 0.996232 15.3208 0.996232H17.1497C17.277 0.996232 17.4049 1.12708 17.4049 1.23612V17.9236ZM36.2274 0.973694C36.3757 0.973694 36.4826 1.106 36.4826 1.23612V3.1174C36.4826 3.27083 36.3765 3.40168 36.2274 3.40168H19.9993C19.8932 3.40168 19.766 3.27083 19.766 3.1174V1.23612C19.766 1.10527 19.8939 0.973694 19.9993 0.973694H36.2274ZM36.2274 5.91682C36.3757 5.91682 36.4826 6.04844 36.4826 6.17929V8.05985C36.4826 8.21251 36.3765 8.34405 36.2274 8.34405H19.9993C19.8932 8.34405 19.766 8.21251 19.766 8.05985V6.17929C19.766 6.04767 19.8939 5.91682 19.9993 5.91682H36.2274ZM36.2274 10.8375C36.3757 10.8375 36.4826 10.9683 36.4826 11.0999V12.9797C36.4826 13.1346 36.3765 13.2655 36.2274 13.2655H19.9993C19.8932 13.2655 19.766 13.1346 19.766 12.9797V11.0999C19.766 10.9676 19.8939 10.8375 19.9993 10.8375H36.2274ZM36.2274 15.7566C36.3757 15.7566 36.4826 15.889 36.4826 16.019V17.9004C36.4826 18.0537 36.3765 18.1846 36.2274 18.1846H19.9993C19.8932 18.1846 19.766 18.0537 19.766 17.9004V16.019C19.766 15.8882 19.8939 15.7566 19.9993 15.7566H36.2274Z" fill="#1B1D27"/>
</svg>
