<svg width="102" height="17" viewBox="0 0 102 17" fill="none" xmlns="http://www.w3.org/2000/svg">
<path d="M95.9843 8.80848C95.9843 8.80848 100.465 15.4352 100.856 15.7912C101.247 16.1472 101.399 16.1546 101.399 16.1546C101.399 16.1546 100.137 16.1198 99.4993 16.1198C98.862 16.1198 97.9534 16.2019 97.9658 16.1546C98.0264 15.9572 98.042 15.7488 98.0114 15.5446C97.9808 15.3404 97.9048 15.1456 97.7891 14.9747C97.5401 14.5266 95.0234 10.7203 94.8591 10.5535C94.6923 10.7178 92.2054 14.5365 91.944 14.9747C91.8282 15.1456 91.752 15.3402 91.721 15.5444C91.6899 15.7485 91.7049 15.957 91.7648 16.1546C91.7772 16.2019 91.0503 16.1198 90.4131 16.1198C89.7758 16.1198 88.5137 16.1546 88.5137 16.1546C88.5137 16.1546 88.6655 16.1372 89.0564 15.7912C89.4472 15.4452 93.8708 8.91054 93.8708 8.91054C93.8708 8.91054 89.6289 2.36597 89.0663 2.05978C88.6058 1.81084 88.663 1.69384 88.663 1.69384C88.663 1.69384 89.7857 1.72869 90.423 1.72869C91.0603 1.72869 91.944 1.64654 91.9316 1.69384C91.8719 1.89148 91.857 2.09994 91.888 2.30405C91.919 2.50817 91.9951 2.7028 92.1108 2.8738C92.3598 3.32189 94.8491 7.05098 95.0035 7.21279C95.1703 7.04849 97.575 3.38164 97.8364 2.93106C97.9575 2.75028 98.0392 2.546 98.0761 2.33153C98.113 2.11707 98.1042 1.89723 98.0505 1.68637C98.0505 1.63907 98.8695 1.72122 99.5043 1.72122C100.139 1.72122 101.247 1.68637 101.247 1.68637C101.011 1.8237 100.789 1.98558 100.587 2.16931C100.179 2.53027 95.9843 8.80848 95.9843 8.80848Z" fill="#1B1D27"/>
<path d="M82.814 9.07196V13.0898C82.814 13.7346 82.7791 15.3079 82.5775 15.7311C82.3759 16.1542 82.3286 16.0721 82.351 16.1493C82.3734 16.2264 82.4829 16.1916 82.4829 16.1916C83.0007 16.1916 83.1202 16.1318 83.8247 16.1318C84.462 16.1318 84.6512 16.1791 85.1465 16.1791C85.1465 16.1791 85.2561 16.214 85.281 16.1393C85.3059 16.0646 85.1117 15.9153 85.0071 15.6414C84.8733 15.0707 84.8147 14.4848 84.8329 13.8989V9.08192C84.8329 9.08192 89.2465 2.18385 89.5627 2.13407C89.7016 2.12052 89.8359 2.07728 89.9566 2.00727C90.0773 1.93726 90.1815 1.84212 90.2622 1.7283H88.3827C87.7454 1.7283 87.0634 1.64615 87.0758 1.69345C87.132 1.88905 87.1438 2.09475 87.1102 2.29548C87.0766 2.4962 86.9985 2.68687 86.8816 2.8535C86.6327 3.30159 84.1259 7.21738 83.9616 7.37919C83.7948 7.21489 81.2233 3.35884 80.9743 2.89831C80.8591 2.72711 80.7834 2.53238 80.7528 2.32827C80.7223 2.12416 80.7376 1.9158 80.7976 1.71834C80.7976 1.67104 79.9263 1.75319 79.289 1.75319C78.6518 1.75319 77.3896 1.71834 77.3896 1.71834C77.3896 1.71834 77.539 1.73826 77.9323 2.08428C78.3257 2.4303 82.814 9.07196 82.814 9.07196Z" fill="#1B1D27"/>
<path d="M71.7417 9.61813C71.7417 9.61813 75.3762 14.7711 75.6625 15.1993C75.9075 15.5792 76.2435 15.892 76.6399 16.1093C77.0363 16.3266 77.4807 16.4417 77.9328 16.444C78.3182 16.4465 78.7033 16.4224 79.0853 16.3718C79.0853 16.3718 78.9957 16.3718 78.6124 16.0084C77.8656 15.3263 74.2161 10.1011 74.2161 10.1011C75.772 9.43143 77.5394 8.37593 77.4523 5.95128C77.3403 2.46615 74.9629 1.56748 71.2961 1.66955C70.853 1.682 69.8597 1.69195 69.3046 1.68946C68.6001 1.68946 68.3661 1.62972 67.8458 1.62972C67.8458 1.62972 67.7338 1.59736 67.7139 1.67204C67.694 1.74672 67.8807 1.90106 67.8807 1.90106C68.1869 2.3143 68.1869 4.27095 68.1869 4.91321C68.1869 6.31224 68.1993 12.8493 68.1993 13.86C68.1993 14.5048 68.1869 15.3039 67.9852 15.7271C67.7836 16.1503 67.7363 16.0681 67.7587 16.1453C67.7811 16.2224 67.8906 16.1876 67.8906 16.1876C68.4109 16.1876 68.5976 16.1278 69.3021 16.1278C69.9394 16.1278 70.0116 16.1751 70.507 16.1751C70.507 16.1751 70.6165 16.21 70.6389 16.1353C70.6613 16.0606 70.4696 15.9113 70.3651 15.6374C70.2317 15.0522 70.1732 14.4525 70.1908 13.8526C70.1908 13.8526 70.2033 4.32073 70.2033 3.36481C70.2033 2.70015 70.5344 2.64289 71.3658 2.63542C74.1663 2.60306 75.4061 4.06682 75.421 6.10064C75.4583 8.37344 74.2286 9.44138 71.7417 9.61813Z" fill="#1B1D27"/>
<path d="M58.6412 7.89858H61.8774C62.5222 7.89858 63.8864 7.93094 64.205 7.85377C64.5236 7.7766 64.6431 7.57247 64.7203 7.60483C64.7975 7.6372 64.7626 7.73926 64.7626 7.73926C64.7626 8.23713 64.7626 8.07533 64.7626 8.71509C64.7626 9.41959 64.8024 9.14327 64.8024 9.66604C64.8024 9.66604 64.8373 9.77557 64.7601 9.79549C64.6829 9.8154 64.7601 9.71085 64.3419 9.56895C63.9237 9.42706 62.5271 9.47436 61.8849 9.47436H58.6487V14.5502H63.2391C63.8106 14.5605 64.3805 14.4892 64.9319 14.3386C65.2082 14.234 65.4497 13.9727 65.5268 13.9951C65.604 14.0175 65.5692 14.1295 65.5692 14.1295C65.5318 14.6473 65.4721 15.1252 65.3924 15.7401L65.3501 16.2056H57.6654C56.9584 16.2056 56.9186 16.2654 56.3933 16.2654C56.3933 16.2654 56.2838 16.2977 56.2614 16.2231C56.239 16.1484 56.3037 16.2007 56.4879 15.8048C56.6721 15.409 56.697 14.5776 56.697 13.9328C56.697 12.728 56.697 10.6767 56.697 8.70514C56.697 6.73355 56.697 5.19761 56.697 3.99524C56.697 3.35049 56.697 2.54891 56.4879 2.12322C56.2788 1.69754 56.239 1.78218 56.2614 1.7075C56.2838 1.63282 56.3933 1.66518 56.3933 1.66518C56.9136 1.66518 56.9584 1.72492 57.6654 1.72492H62.3952C63.7245 1.72492 64.3693 1.72492 65.1559 1.72492V2.19044C65.1559 2.81278 65.1559 3.12146 65.1559 3.6293C65.1559 3.6293 65.1908 3.74132 65.1161 3.76123C65.0414 3.78115 64.8896 3.59196 64.6182 3.4874C64.0693 3.33723 63.5019 3.26599 62.9329 3.27581H58.6462L58.6412 7.89858Z" fill="#1B1D27"/>
<path d="M48.5145 3.34258C48.5145 4.54744 48.5145 11.2737 48.5145 13.8453C48.5145 14.4875 48.5145 15.2841 48.3103 15.7073C48.1062 16.1305 48.0614 16.0484 48.0838 16.1255C48.1062 16.2027 48.2157 16.1679 48.2157 16.1679C48.7335 16.1679 48.8381 16.1081 49.5451 16.1081C50.1824 16.1081 50.2919 16.1554 50.7898 16.1554C50.7898 16.1554 50.9018 16.1903 50.9217 16.1156C50.9416 16.0409 50.7524 15.8915 50.6479 15.6177C50.5147 15.0325 50.4562 14.4327 50.4736 13.8328C50.4736 11.1816 50.4736 4.12425 50.4736 3.34756H52.5796C53.2219 3.34756 54.3595 3.42224 54.6682 3.54173C54.9769 3.66122 55.0914 3.83797 55.1661 3.81557C55.2408 3.79316 55.2084 3.68114 55.2084 3.68114C55.2084 3.18326 55.2084 2.32941 55.2084 1.68964H43.3789C43.3789 2.32443 43.2221 3.26043 43.2221 3.75582C43.2221 3.75582 43.1897 3.86535 43.2644 3.88776C43.3391 3.91016 43.4884 3.72097 43.7623 3.61393C44.4885 3.46195 45.2284 3.38437 45.9703 3.38241L48.5095 3.34009" fill="#1B1D27"/>
<path d="M40.1462 0.45459V4.98277L42.8821 0.45459H40.1462Z" fill="#1B1D27"/>
<path d="M39.1688 13.1337C37.9067 14.7045 35.7583 15.1999 33.8664 15.1974C30.3987 15.1974 27.9691 12.0932 27.9293 8.95655C27.882 5.0308 30.4186 2.64349 34.1253 2.64349C35.4969 2.64349 37.8444 3.52472 38.7107 4.94616C38.8351 5.16248 38.9194 5.39944 38.9597 5.64567H39.0991C39.0991 5.64567 39.0991 5.4988 39.0841 5.39674C39.0493 4.82169 38.8352 4.09728 38.7605 3.45005C38.7039 2.99625 38.7039 2.53718 38.7605 2.08338C38.6003 2.09391 38.4394 2.08891 38.2801 2.06844C37.8071 2.01367 36.082 1.46352 34.2124 1.44112C29.2885 1.37639 26.0572 4.13711 25.9502 8.93663C25.8506 13.3976 29.1341 16.4546 34.0954 16.4546C35.6072 16.4274 37.1125 16.2489 38.5888 15.9218L39.0866 14.6348C39.2514 14.2067 39.3943 13.7705 39.5148 13.3279L39.1688 13.1337Z" fill="#1B1D27"/>
<path d="M18.6665 9.61804C18.6665 9.61804 22.301 14.7661 22.5997 15.1943C22.8442 15.5741 23.1797 15.8869 23.5758 16.1043C23.9718 16.3216 24.4158 16.4366 24.8675 16.4389C25.2529 16.4415 25.6381 16.4173 26.0201 16.3667C26.0201 16.3667 25.933 16.3667 25.5471 16.0033C24.8003 15.3212 21.1509 10.096 21.1509 10.096C22.7068 9.42636 24.4717 8.37087 24.3871 5.94621C24.2726 2.46108 21.8977 1.56242 18.2309 1.66448C17.7878 1.67693 16.7945 1.68689 16.2394 1.6844C15.5349 1.6844 15.2984 1.62465 14.7781 1.62465C14.7781 1.62465 14.6661 1.59229 14.6437 1.66697C14.6213 1.74165 14.8105 1.89599 14.8105 1.89599C15.1316 2.3167 15.1316 4.27584 15.1316 4.9181C15.1316 6.31713 15.1441 12.8542 15.1441 13.8649C15.1441 14.5097 15.1316 15.3088 14.9325 15.732C14.7333 16.1552 14.6835 16.073 14.7059 16.1502C14.7283 16.2273 14.8379 16.1925 14.8379 16.1925C15.3556 16.1925 15.5448 16.1327 16.2493 16.1327C16.8866 16.1327 16.9563 16.18 17.4517 16.18C17.4517 16.18 17.5637 16.2149 17.5861 16.1402C17.6085 16.0655 17.4169 15.9162 17.3098 15.6423C17.1779 15.0569 17.1202 14.4573 17.138 13.8575C17.138 13.8575 17.138 4.32563 17.138 3.3697C17.138 2.70504 17.4691 2.64779 18.3006 2.64032C21.1061 2.60298 22.3508 4.06673 22.3632 6.10055C22.3807 8.37335 21.1509 9.4413 18.6665 9.61804Z" fill="#1B1D27"/>
<path d="M7.76681 1.63233C7.76681 1.63233 11.3839 10.0215 12.9945 13.6809C13.3059 14.4059 13.6712 15.1066 14.0873 15.777C14.4259 16.1778 14.4782 16.1678 14.4782 16.1678C14.4782 16.1678 13.2136 16.1305 12.5788 16.1305C11.944 16.1305 11.583 16.2126 11.583 16.1678C11.6531 15.9705 11.682 15.7608 11.6679 15.5519C11.6538 15.3429 11.5969 15.1391 11.5009 14.953C11.461 14.8559 11.1822 14.2062 11.0553 13.89C9.96243 11.3434 7.51289 5.63525 7.51289 5.63525C7.35357 5.23197 7.48551 5.23197 7.29382 5.63525C7.29382 5.63525 4.84677 11.3334 3.74647 13.8801C3.61951 14.1887 3.3407 14.8459 3.30087 14.943C3.20469 15.1291 3.14757 15.3328 3.13301 15.5417C3.11846 15.7506 3.14678 15.9603 3.21623 16.1578C3.22868 16.2051 2.97974 16.1205 2.34495 16.1205C1.71016 16.1205 0.445557 16.1578 0.445557 16.1578C0.445557 16.1578 0.495344 16.1578 0.833899 15.767C1.24898 15.0964 1.61344 14.3958 1.92424 13.671C3.53985 10.0116 7.15193 1.62237 7.15193 1.62237C7.3461 1.20167 7.54774 1.1693 7.76681 1.63233Z" fill="#1B1D27"/>
</svg>
