<svg width="77" height="21" viewBox="0 0 77 21" fill="none" xmlns="http://www.w3.org/2000/svg">
<path d="M52.3581 4.58305C51.0096 4.58305 49.9698 5.06406 49.005 6.06798V4.81699H46.3568V17.1267H49.2062V9.98733C49.2062 8.35291 50.1785 7.31897 51.6538 7.31897C51.9219 7.31897 52.1569 7.35212 52.3243 7.38527L54.3021 4.78321C53.531 4.64998 52.8605 4.58305 52.3575 4.58305H52.3581ZM76.9312 4.81699H73.6456L70.6118 8.83204L67.5781 4.81636H64.2925L68.9278 11.0194L64.2925 17.1267H67.6449L70.595 13.2324L73.545 17.1267H76.9312L72.2646 11.0294L76.9312 4.81699ZM17.0903 2.04792C16.118 3.34895 15.8831 3.78242 14.9445 3.78242H0.931152V20.4625H6.4294C7.66977 20.4625 8.87639 19.862 9.64749 18.8612C10.6535 17.527 10.7873 17.1267 11.7596 17.1267H25.8067V0.446655H20.2747C19.0343 0.446655 17.8277 1.04713 17.0897 2.04792H17.0903ZM21.4482 12.8233H15.5813C14.3072 12.8233 13.1343 13.3569 12.3632 14.3908C11.3571 15.7256 11.1559 16.1259 10.2174 16.1259H5.25589V8.1196H11.1228C12.3963 8.1196 13.5698 7.51913 14.3409 6.51834C15.3469 5.21731 15.615 4.81699 16.5198 4.81699H21.4482V12.8233ZM42.5014 8.72008C43.7424 8.01952 44.6134 6.7848 44.6134 5.15038C44.6134 2.74848 42.7701 0.446655 40.0881 0.446655H32.0423V17.1267H40.0881C43.0044 17.1267 45.0158 15.0582 45.0158 12.4562C45.0158 10.9218 44.3122 9.58702 42.5014 8.72008ZM34.8917 3.04871H39.8531C41.0935 3.04871 41.8309 4.21651 41.8309 5.25046C41.8309 6.51834 40.7248 7.38527 39.6857 7.38527H34.8917V3.04871ZM39.6857 14.5247H34.8917V9.98733H39.8531C41.1273 9.98733 42.1664 11.0882 42.1664 12.2229C42.1664 13.4901 40.8592 14.5247 39.6857 14.5247Z" fill="#1B1D27"/>
<path d="M61.4431 13.633C60.9738 14.3673 60.0684 14.8008 59.0624 14.8008C57.4877 14.8008 56.1798 13.7331 56.1798 12.0986H64.695C64.8293 11.5982 64.8624 11.3649 64.8624 10.9308C64.8624 7.19475 62.5491 4.62584 59.063 4.62584C55.6431 4.62584 53.2298 7.06152 53.2298 11.0309C53.2298 14.9009 55.5425 17.4028 59.1298 17.4028C61.6443 17.4028 63.857 16.1687 64.4938 13.633H61.4431ZM59.0624 7.2279C60.6383 7.2279 61.8455 8.2287 61.8118 9.72988H56.213C56.213 8.26247 57.4877 7.2279 59.0624 7.2279Z" fill="#1B1D27"/>
</svg>
