<svg width="76" height="23" viewBox="0 0 76 23" fill="none" xmlns="http://www.w3.org/2000/svg">
<g clip-path="url(#clip0_3_3574)">
<path d="M11.0323 15.3952C12.9363 15.3952 14.4799 13.848 14.4799 11.9395C14.4799 10.031 12.9363 8.48383 11.0323 8.48383C9.12825 8.48383 7.58472 10.031 7.58472 11.9395C7.58472 13.848 9.12825 15.3952 11.0323 15.3952Z" fill="#1B1D27"/>
<path d="M17.2439 20.1214C17.5372 20.4155 17.5078 20.9021 17.1631 21.1336C15.4096 22.311 13.3005 22.9976 11.0314 22.9976C8.76226 22.9976 6.65313 22.311 4.89957 21.1336C4.55493 20.9021 4.52548 20.4155 4.8188 20.1214L7.33824 17.596C7.56595 17.3678 7.9192 17.3317 8.20581 17.4789C9.05329 17.9141 10.0137 18.1596 11.0314 18.1596C12.049 18.1596 13.0095 17.9141 13.857 17.4789C14.1436 17.3317 14.4967 17.3678 14.7245 17.596L17.2439 20.1214Z" fill="#1B1D27"/>
<path d="M17.164 2.74528C17.5087 2.97668 17.5381 3.46344 17.2448 3.75745L14.7254 6.28284C14.4976 6.51108 14.1443 6.54713 13.8577 6.39996C13.0102 5.96478 12.0499 5.71925 11.0322 5.71925C7.60494 5.71925 4.82659 8.50415 4.82659 11.9395C4.82659 12.9595 5.07154 13.9222 5.5057 14.7717C5.65252 15.059 5.61656 15.413 5.38885 15.6413L2.86941 18.1667C2.57608 18.4606 2.09047 18.4311 1.85961 18.0858C0.685051 16.328 0 14.2139 0 11.9395C0 5.83222 4.93929 0.881287 11.0322 0.881287C13.3013 0.881287 15.4105 1.56795 17.164 2.74528Z" fill="#1B1D27"/>
<path fill-rule="evenodd" clip-rule="evenodd" d="M36.0271 3.1275C36.0271 3.03207 36.1042 2.95471 36.1995 2.95471H38.7852C38.8803 2.95471 38.9575 3.03207 38.9575 3.1275V20.7515C38.9575 20.8469 38.8803 20.9243 38.7852 20.9243H36.1995C36.1042 20.9243 36.0271 20.8469 36.0271 20.7515V3.1275ZM32.378 17.1861C32.3094 17.1267 32.2067 17.1311 32.1407 17.1935C31.7377 17.5748 31.2657 17.8798 30.7484 18.0925C30.1811 18.3261 29.5712 18.4437 28.9559 18.4382C28.4364 18.4535 27.9191 18.3644 27.4361 18.1763C26.953 17.9882 26.5141 17.7051 26.1468 17.3444C25.4794 16.6615 25.0954 15.6865 25.0954 14.5243C25.0954 12.1976 26.6397 10.6063 28.9559 10.6063C29.5773 10.5977 30.1928 10.7238 30.7586 10.9755C31.2716 11.2038 31.7323 11.5301 32.1139 11.9349C32.1791 12.0042 32.2874 12.0122 32.3594 11.9498L34.1049 10.4358C34.1763 10.374 34.1849 10.266 34.122 10.1956C32.809 8.72486 30.752 7.96547 28.7958 7.96547C24.8572 7.96547 22.0645 10.6285 22.0645 14.5464C22.0645 16.4842 22.7585 18.1159 23.929 19.268C25.0995 20.4203 26.767 21.097 28.691 21.097C31.1037 21.097 33.0455 20.1698 34.1839 18.9801C34.2507 18.9103 34.2433 18.7993 34.1703 18.736L32.378 17.1861ZM53.2012 15.3867C53.1915 15.4732 53.1181 15.538 53.0311 15.538H43.9734C43.8633 15.538 43.7813 15.6403 43.81 15.7467C44.2606 17.4212 45.6042 18.4344 47.438 18.4344C48.0562 18.4474 48.669 18.3198 49.2289 18.0617C49.7508 17.8212 50.2138 17.4733 50.5868 17.042C50.6319 16.9899 50.7105 16.9822 50.7633 17.0264L52.5843 18.6156C52.6541 18.6764 52.6638 18.7817 52.604 18.8524C51.5045 20.1524 49.7232 21.097 47.2787 21.097C43.518 21.097 40.6813 18.4867 40.6813 14.5209C40.6813 12.5751 41.3496 10.9436 42.4633 9.79149C43.0514 9.19907 43.7562 8.73153 44.5343 8.41768C45.3126 8.10385 46.1478 7.95034 46.9884 7.96663C50.8001 7.96663 53.2649 10.6536 53.2649 14.3637C53.2601 14.7055 53.2388 15.047 53.2012 15.3867ZM43.8644 12.9788C43.8324 13.0855 43.9146 13.1893 44.0258 13.1893H50.0484C50.1597 13.1893 50.2419 13.0848 50.2111 12.9776C49.8005 11.5536 48.7591 10.6032 47.1416 10.6032C46.6659 10.5881 46.1925 10.6744 45.7537 10.8562C45.3149 11.038 44.9211 11.3111 44.5992 11.6566C44.2607 12.0413 44.0106 12.4923 43.8644 12.9788ZM62.2267 7.96736C62.3226 7.96631 62.401 8.04397 62.401 8.14014V11.042C62.401 11.1425 62.3157 11.2218 62.2155 11.2143C61.9361 11.1936 61.672 11.1759 61.4988 11.1759C59.2433 11.1759 57.9192 12.7671 57.9192 14.8558V20.7515C57.9192 20.8469 57.8419 20.9243 57.7467 20.9243H55.1611C55.0659 20.9243 54.9886 20.8469 54.9886 20.7515V8.31952C54.9886 8.2241 55.0659 8.14675 55.1611 8.14675H57.7467C57.8419 8.14675 57.9192 8.2241 57.9192 8.31952V10.0644C57.9192 10.0743 57.927 10.0823 57.9369 10.0823C57.9425 10.0823 57.9479 10.0796 57.9512 10.0751C58.962 8.72213 60.4538 7.96951 62.0298 7.96951L62.2267 7.96736ZM69.2308 15.5672C69.2413 15.5558 69.2562 15.5494 69.2717 15.5494C69.291 15.5494 69.3089 15.5593 69.3191 15.5758L72.5885 20.8428C72.6199 20.8934 72.6753 20.9243 72.7349 20.9243H75.6741C75.8093 20.9243 75.8918 20.7756 75.8207 20.6605L71.3354 13.4064C71.2948 13.3409 71.3025 13.2565 71.3541 13.1994L75.6757 8.4202C75.7761 8.30914 75.6975 8.13138 75.548 8.13138H72.4816C72.4333 8.13138 72.3872 8.15169 72.3545 8.18735L67.3546 13.6504C67.2483 13.7666 67.0551 13.6912 67.0551 13.5336V3.12749C67.0551 3.03207 66.978 2.95471 66.8828 2.95471H64.2972C64.2019 2.95471 64.1247 3.03207 64.1247 3.12749V20.7515C64.1247 20.8469 64.2019 20.9243 64.2972 20.9243H66.8828C66.978 20.9243 67.0551 20.8469 67.0551 20.7515V17.9781C67.0551 17.9345 67.0717 17.8924 67.1013 17.8604L69.2308 15.5672Z" fill="#1B1D27"/>
</g>
<defs>
<clipPath id="clip0_3_3574">
<rect width="76" height="22.1164" fill="white" transform="translate(0 0.881287)"/>
</clipPath>
</defs>
</svg>
