<svg width="62" height="23" viewBox="0 0 62 23" fill="none" xmlns="http://www.w3.org/2000/svg">
<g clip-path="url(#clip0_3_3702)">
<path d="M38.1375 4.29364V19.4053H35.075V17.8641C34.7547 18.4045 34.2945 18.8449 33.734 19.1251C33.1336 19.4253 32.453 19.5855 31.7726 19.5855C30.9319 19.6055 30.0912 19.3653 29.3907 18.8849C28.6702 18.4045 28.1097 17.744 27.7493 16.9634C27.3491 16.0627 27.1489 15.102 27.1688 14.1212C27.1489 13.1405 27.3491 12.1797 27.7493 11.299C28.1097 10.5385 28.6702 9.87794 29.3707 9.41759C30.0912 8.95724 30.9319 8.73707 31.7726 8.75709C32.433 8.75709 33.0935 8.8972 33.6739 9.19742C34.2345 9.47763 34.6947 9.89797 35.015 10.4184V5.31443L38.1375 4.29364ZM34.4546 16.423C34.8548 15.9026 35.075 15.142 35.075 14.1613C35.075 13.1805 34.875 12.4399 34.4546 11.9195C34.0343 11.3991 33.3736 11.0989 32.6933 11.1189C32.0127 11.0789 31.3523 11.3791 30.9117 11.8995C30.4916 12.4199 30.2712 13.1605 30.2712 14.1212C30.2712 15.102 30.4916 15.8626 30.9117 16.403C31.3321 16.9434 32.0127 17.2436 32.6933 17.2236C33.4538 17.2236 34.0542 16.9434 34.4546 16.423Z" fill="#1B1D27"/>
<path d="M49.0861 9.39759C49.8066 9.85795 50.3671 10.5184 50.7073 11.279C51.1075 12.1597 51.3077 13.1205 51.2878 14.1012C51.3077 15.082 51.1075 16.0627 50.7073 16.9434C50.3469 17.724 49.7866 18.3845 49.0659 18.8649C48.3654 19.3252 47.5247 19.5654 46.6842 19.5454C46.0036 19.5654 45.3231 19.4053 44.7227 19.0851C44.1623 18.8048 43.7019 18.3645 43.4016 17.8241V19.3853H40.3193V5.31443L43.4217 4.29364V10.4584C43.7218 9.91799 44.1823 9.47766 44.7426 9.19742C45.3432 8.87717 46.0036 8.71705 46.6842 8.73707C47.5247 8.71705 48.3654 8.95724 49.0861 9.39759ZM47.5648 16.403C47.9852 15.8626 48.1854 15.102 48.1854 14.1012C48.1854 13.1405 47.9852 12.3999 47.5648 11.8795C47.1444 11.3591 46.564 11.0989 45.8034 11.0989C45.1231 11.0589 44.4624 11.3591 44.0221 11.8995C43.6018 12.4399 43.4016 13.1805 43.4016 14.1413C43.4016 15.122 43.6018 15.8826 44.0221 16.403C44.4425 16.9434 45.1029 17.2436 45.8034 17.2036C46.484 17.2436 47.1444 16.9434 47.5648 16.403Z" fill="#1B1D27"/>
<path d="M55.5709 11.319V15.3621C55.5709 15.9426 55.731 16.3629 56.0114 16.6231C56.3317 16.9033 56.7518 17.0434 57.1923 17.0234C57.5325 17.0234 57.8928 16.9634 58.2131 16.8833V19.2852C57.6326 19.4853 57.0322 19.5854 56.4315 19.5654C55.1508 19.5654 54.1699 19.2051 53.4893 18.4845C52.8089 17.764 52.4685 16.7432 52.4685 15.4222V6.55533L55.5709 5.55457V8.99723H58.2131V11.319H55.5709Z" fill="#1B1D27"/>
<path d="M21.4246 1.79168C21.945 2.29207 22.2853 2.95258 22.3654 3.67313C22.3654 3.97336 22.2853 4.17353 22.1052 4.55382C21.925 4.93411 19.7033 8.77709 19.0428 9.8379C18.6625 10.4584 18.4624 11.199 18.4624 11.9195C18.4624 12.6601 18.6625 13.3806 19.0428 14.0011C19.7033 15.0619 21.925 18.9249 22.1052 19.3052C22.2853 19.6855 22.3654 19.8656 22.3654 20.1659C22.2853 20.8864 21.9651 21.5469 21.4447 22.0273C20.9443 22.5477 20.2838 22.888 19.5832 22.948C19.283 22.948 19.0828 22.868 18.7226 22.6878C18.3623 22.5077 14.4393 20.346 13.3784 19.6855C13.2984 19.6455 13.2183 19.5854 13.1182 19.5454L7.87418 16.443C7.99426 17.4438 8.43462 18.4045 9.15515 19.1051C9.29528 19.2452 9.43538 19.3653 9.59551 19.4853C9.4754 19.5454 9.3353 19.6054 9.21522 19.6855C8.15439 20.346 4.29141 22.5677 3.91112 22.7479C3.53083 22.928 3.35068 23.0081 3.03043 23.0081C2.30988 22.928 1.64937 22.6078 1.169 22.0874C0.648596 21.587 0.308333 20.9265 0.228271 20.2059C0.248287 19.9057 0.328349 19.6054 0.488473 19.3452C0.668613 18.9649 2.89033 15.102 3.55083 14.0411C3.93112 13.4207 4.13129 12.7001 4.13129 11.9595C4.13129 11.219 3.93112 10.4984 3.55083 9.87792C2.89033 8.77709 0.648596 4.91409 0.488473 4.5338C0.328349 4.27359 0.248287 3.97336 0.228271 3.67313C0.308333 2.95258 0.628582 2.29207 1.14898 1.79168C1.64937 1.27128 2.30988 0.951033 3.03043 0.870972C3.33066 0.890987 3.63089 0.971049 3.91112 1.13117C4.23137 1.27128 7.05353 2.91255 8.5547 3.79324L8.89497 3.99338C9.01505 4.07345 9.11514 4.13349 9.1952 4.17353L9.35532 4.27359L14.6994 7.43605C14.5794 6.23511 13.9589 5.13426 12.9981 4.3937C13.1182 4.33366 13.2583 4.27359 13.3784 4.19353C14.4393 3.53303 18.3022 1.2913 18.6825 1.13117C18.9427 0.971049 19.243 0.890987 19.5632 0.870972C20.2637 0.951033 20.9243 1.27128 21.4246 1.79168ZM11.577 13.3606L12.7179 12.2197C12.878 12.0596 12.878 11.8194 12.7179 11.6593L11.577 10.5184C11.4169 10.3583 11.1767 10.3583 11.0166 10.5184L9.87572 11.6593C9.71559 11.8194 9.71559 12.0596 9.87572 12.2197L11.0166 13.3606C11.1567 13.5007 11.4169 13.5007 11.577 13.3606Z" fill="#1B1D27"/>
<path d="M61.0017 18.4487L60.6492 19.4406H60.5184L60.1659 18.4512V19.4406H59.9391V18.0887H60.2212L60.5838 19.0932L60.9464 18.0887H61.2282V19.4406H61.0017V18.4487ZM59.7404 18.2926H59.3702V19.4406H59.1412V18.2926H58.7686V18.0887H59.7404V18.2926Z" fill="#1B1D27"/>
</g>
<defs>
<clipPath id="clip0_3_3702">
<rect width="61" height="22.1371" fill="white" transform="translate(0.228271 0.870972)"/>
</clipPath>
</defs>
</svg>
