<svg width="61" height="23" viewBox="0 0 61 23" fill="none" xmlns="http://www.w3.org/2000/svg">
<g clip-path="url(#clip0_3_3523)">
<path d="M0 0.399383V17.48L2.19779 17.4868V9.35278H7.4968V7.2028H2.19779V2.54832H9.099V0.398315L0 0.399383Z" fill="#1B1D27"/>
<path d="M13.0549 3.86668C13.8466 3.86668 14.4882 3.22495 14.4882 2.43334C14.4882 1.64173 13.8466 1 13.0549 1C12.2634 1 11.6216 1.64173 11.6216 2.43334C11.6216 3.22495 12.2634 3.86668 13.0549 3.86668Z" fill="#1B1D27"/>
<path d="M11.9368 6.01666V17.4834H14.1345V6.01666H11.9368Z" fill="#1B1D27"/>
<path fill-rule="evenodd" clip-rule="evenodd" d="M22.2863 5.68225C19.3678 5.68225 17.3311 8.15056 17.3311 11.0811C17.3311 14.0118 19.3678 16.4801 22.2863 16.4801C23.6224 16.4801 24.7236 15.9627 25.525 15.1207V16.6473C25.525 18.5471 24.0327 20.1351 22.085 20.1351C21.3849 20.1351 20.6894 19.8637 20.1352 19.4818L19.034 21.389C19.9135 21.956 20.9608 22.2851 22.085 22.2851C25.1987 22.2851 27.7227 19.7609 27.7227 16.6473V6.01669H25.525V7.04165C24.7236 6.19953 23.6224 5.68225 22.2863 5.68225ZM19.5288 11.0811C19.5288 9.26206 20.9203 7.83226 22.5252 7.83226C24.1302 7.83226 25.5216 9.26206 25.5216 11.0811C25.5216 12.9002 24.1302 14.3301 22.5252 14.3301C20.9203 14.3301 19.5288 12.9002 19.5288 11.0811Z" fill="#1B1D27"/>
<path d="M35.6419 7.83225C34.3424 7.83225 33.2888 8.93351 33.2888 10.2331V17.4834H31.0911V6.01669H33.2888V7.06711C33.9328 6.23466 34.8815 5.68225 36.1197 5.68225C37.6597 5.68225 38.8416 6.44715 39.5262 7.61775C40.2874 6.48705 41.5291 5.68225 43.0236 5.68225C45.525 5.68225 47.082 7.70038 47.0967 10.1972C47.0967 10.2048 47.0967 10.2123 47.0967 10.2199V10.2204V10.2207V10.2211C47.0967 10.2251 47.0967 10.2291 47.0967 10.2331V17.4834H44.8989V10.2331C44.8989 8.93351 43.8454 7.83225 42.5458 7.83225C41.2462 7.83225 40.1928 8.93351 40.1928 10.2331V17.4834H37.995V10.2331C37.995 8.93351 36.9415 7.83225 35.6419 7.83225Z" fill="#1B1D27"/>
<path fill-rule="evenodd" clip-rule="evenodd" d="M58.8023 7.31655C57.8245 6.30695 56.4855 5.68225 54.9323 5.68225C51.6627 5.68225 49.3423 8.45054 49.3423 11.75C49.3423 15.0495 51.6627 17.8178 54.9323 17.8178C56.4855 17.8178 57.8245 17.1932 58.8023 16.1835V17.4834H61.0001V6.01669H58.8023V7.31655ZM51.5401 11.75C51.5401 9.56105 53.2161 7.83226 55.1712 7.83226C57.1261 7.83226 58.8023 9.56105 58.8023 11.75C58.8023 13.9391 57.1261 15.6678 55.1712 15.6678C53.2161 15.6678 51.5401 13.9391 51.5401 11.75Z" fill="#1B1D27"/>
</g>
<defs>
<clipPath id="clip0_3_3523">
<rect width="61" height="22.1125" fill="white" transform="translate(0 0.398315)"/>
</clipPath>
</defs>
</svg>
