<svg width="81" height="21" viewBox="0 0 81 21" fill="none" xmlns="http://www.w3.org/2000/svg">
<path fill-rule="evenodd" clip-rule="evenodd" d="M3.0686 3.73C2.9629 3.84616 2.9699 4.02439 3.08094 4.13545L16.8049 17.8594C16.916 17.9705 17.0942 17.9775 17.2104 17.8718C19.2227 16.0407 20.4858 13.4006 20.4858 10.4655C20.4858 4.93658 16.0038 0.454529 10.4749 0.454529C7.53981 0.454529 4.89971 1.71767 3.0686 3.73ZM1.35331 6.33458C1.3026 6.4464 1.32817 6.57751 1.41498 6.66432L14.2761 19.5254C14.3629 19.6122 14.494 19.6378 14.6058 19.5871C14.9029 19.4523 15.1923 19.3034 15.473 19.1414C15.6399 19.045 15.6654 18.8173 15.5292 18.6811L2.25927 5.4112C2.12303 5.27495 1.89535 5.30052 1.79901 5.46738C1.63692 5.74812 1.48807 6.03747 1.35331 6.33458ZM0.573072 10.0173C0.512854 9.95703 0.480814 9.87404 0.486483 9.78907C0.513033 9.3911 0.562839 8.99952 0.634554 8.61564C0.677555 8.38545 0.958819 8.30558 1.1244 8.47115L12.4692 19.816C12.6348 19.9816 12.5549 20.2628 12.3247 20.3058C11.9409 20.3775 11.5493 20.4273 11.1513 20.4539C11.0663 20.4595 10.9833 20.4275 10.9231 20.3673L0.573072 10.0173ZM1.26928 12.8109C1.06258 12.6042 0.72902 12.7823 0.804718 13.0646C1.72699 16.5045 4.43586 19.2134 7.87575 20.1356C8.1581 20.2114 8.3362 19.8778 8.12951 19.6711L1.26928 12.8109ZM40.8176 5.96356C41.5353 5.96356 42.1169 5.37975 42.1169 4.65958C42.1169 3.93941 41.5353 3.3556 40.8176 3.3556C40.1001 3.3556 39.5185 3.93941 39.5185 4.65958C39.5185 5.37975 40.1001 5.96356 40.8176 5.96356ZM29.6893 17.3357V3.35638H31.9982V15.2904H38.2234V17.3357H29.6893ZM46.1226 11.6314V17.3357H43.8885V7.4282H46.0946V9.12635L46.1226 9.1076C46.3469 8.57594 46.7084 8.13186 47.207 7.77533C47.7054 7.41256 48.341 7.23117 49.1139 7.23117C49.7993 7.23117 50.4224 7.38442 50.9834 7.6909C51.5442 7.99113 51.9927 8.43207 52.3293 9.01377C52.6658 9.59546 52.834 10.3085 52.834 11.1529V17.3357H50.6V11.4625C50.6 10.7119 50.4005 10.1427 50.0018 9.75496C49.6092 9.36091 49.0827 9.16388 48.422 9.16388C47.9983 9.16388 47.6119 9.25145 47.263 9.42658C46.9141 9.60172 46.6368 9.87066 46.4311 10.2334C46.2254 10.5962 46.1226 11.0622 46.1226 11.6314ZM66.351 17.1668C66.862 17.3857 67.4478 17.4952 68.1083 17.4952C68.6505 17.4952 69.1147 17.4264 69.501 17.2888C69.8875 17.1449 70.2053 16.9541 70.4545 16.7164C70.71 16.4788 70.9125 16.2192 71.0622 15.9377H71.0996V17.3357H73.2402V10.5149C73.2402 10.0333 73.1465 9.59234 72.9597 9.19203C72.7728 8.79172 72.5017 8.4446 72.1464 8.15063C71.7974 7.85664 71.3737 7.63148 70.8751 7.47512C70.3767 7.31248 69.8157 7.23117 69.1927 7.23117C68.339 7.23117 67.6005 7.37816 66.9773 7.67213C66.3602 7.95986 65.8775 8.34764 65.5283 8.83552C65.1794 9.32338 64.9893 9.8738 64.9581 10.4867H67.1175C67.1423 10.199 67.2422 9.94259 67.4166 9.71743C67.5911 9.49226 67.828 9.31712 68.1271 9.19203C68.4262 9.06068 68.7719 8.995 69.1647 8.995C69.5572 8.995 69.8905 9.06068 70.1648 9.19203C70.4451 9.32338 70.6602 9.50165 70.8097 9.72681C70.9593 9.95197 71.0342 10.2147 71.0342 10.5149V10.59C71.0342 10.8151 70.9561 10.9809 70.8005 11.0872C70.6508 11.1935 70.3953 11.2717 70.034 11.3218C69.6787 11.3718 69.1927 11.4312 68.5757 11.5C68.0709 11.5563 67.5849 11.6408 67.1175 11.7533C66.6501 11.8659 66.2326 12.0317 65.8648 12.2506C65.5035 12.4695 65.2168 12.7603 65.0049 13.1231C64.7931 13.4859 64.6872 13.9519 64.6872 14.521C64.6872 15.1778 64.8367 15.7282 65.1358 16.1723C65.4349 16.6101 65.84 16.9416 66.351 17.1668ZM69.9686 15.5062C69.607 15.7001 69.1615 15.797 68.6319 15.797C68.0959 15.797 67.6689 15.6844 67.3512 15.4593C67.0333 15.2278 66.8744 14.912 66.8744 14.5117C66.8744 14.1989 66.9617 13.9456 67.1361 13.7517C67.317 13.5578 67.5537 13.4046 67.8466 13.292C68.1395 13.1794 68.4572 13.1012 68.7999 13.0574C69.0492 13.0199 69.2923 12.9824 69.5292 12.9449C69.7659 12.9011 69.9872 12.8604 70.1929 12.8229C70.3985 12.7791 70.573 12.7353 70.7162 12.6915C70.8659 12.6478 70.9749 12.6008 71.0434 12.5508V13.6579C71.0434 14.0457 70.9531 14.4022 70.7723 14.7275C70.5978 15.0465 70.3299 15.306 69.9686 15.5062ZM75.1893 17.3357V7.4282H77.3391V9.06068H77.3673C77.548 8.49776 77.8315 8.06932 78.2178 7.77533C78.6104 7.47512 79.1245 7.325 79.7602 7.325C79.916 7.325 80.0563 7.33124 80.1807 7.34377C80.3118 7.35001 80.4208 7.35627 80.508 7.36252V9.37966C80.427 9.36716 80.2836 9.35153 80.0781 9.33276C79.8724 9.314 79.6543 9.30461 79.4237 9.30461C79.0559 9.30461 78.7196 9.38904 78.4141 9.55793C78.1088 9.72681 77.8657 9.98638 77.685 10.3366C77.5105 10.6807 77.4233 11.1154 77.4233 11.6408V17.3357H75.1893ZM39.696 17.3357V7.4282H41.93V17.3357H39.696ZM56.5498 16.8947C57.2665 17.3388 58.1172 17.5608 59.1018 17.5608C59.862 17.5608 60.5537 17.4232 61.1769 17.148C61.8064 16.8666 62.3297 16.4819 62.7473 15.994C63.1649 15.4999 63.436 14.9307 63.5606 14.2865H61.4574C61.3638 14.5805 61.2111 14.84 60.9993 15.0652C60.7938 15.2841 60.5351 15.4561 60.2236 15.5812C59.9119 15.7063 59.5505 15.7689 59.1392 15.7689C58.5846 15.7689 58.1078 15.6438 57.709 15.3936C57.3165 15.1434 57.0174 14.7963 56.8117 14.3522C56.625 13.9434 56.523 13.4806 56.5058 12.9636H63.6914V12.3632C63.6914 11.6001 63.5792 10.9058 63.3549 10.2804C63.1306 9.64862 62.8127 9.10446 62.4014 8.64787C61.9902 8.18502 61.4948 7.82851 60.9152 7.57832C60.3418 7.32812 59.7032 7.20304 58.9989 7.20304C58.083 7.20304 57.2729 7.42508 56.5686 7.86916C55.8644 8.31325 55.313 8.92621 54.914 9.70804C54.5153 10.4899 54.3158 11.3843 54.3158 12.3913C54.3158 13.3921 54.5091 14.2834 54.8954 15.0652C55.2817 15.8408 55.8334 16.4506 56.5498 16.8947ZM61.2517 10.3366C61.0461 9.91132 60.7532 9.58296 60.373 9.35153C59.9929 9.12011 59.5443 9.00438 59.0269 9.00438C58.5159 9.00438 58.0704 9.12011 57.6902 9.35153C57.3165 9.58296 57.0236 9.91132 56.8117 10.3366C56.6605 10.6447 56.5648 10.9949 56.5248 11.3874H61.5385C61.4984 10.9949 61.4028 10.6447 61.2517 10.3366Z" fill="#1B1D27"/>
</svg>
