<svg width="74" height="22" viewBox="0 0 74 22" fill="none" xmlns="http://www.w3.org/2000/svg">
<g clip-path="url(#clip0_3_3579)">
<path d="M22.793 9.80099H16.1194L21.8988 6.48698L20.7527 4.51453L14.9726 7.82853L18.3087 2.08885L16.3231 0.95034L12.9862 6.68857V0.0620117H10.6926V6.6893L7.35573 0.95034L5.3694 2.08885L8.7055 7.82708L2.92682 4.51453L1.77999 6.48698L7.5594 9.80099H0.885742V12.0787H7.55867L1.77999 15.3927L2.92609 17.3652L8.70623 14.0512L5.3694 19.7909L7.355 20.9294L10.6926 15.1904V21.817H12.9862V15.0483L16.3844 20.8931L18.2466 19.8257L14.8477 13.9794L20.7512 17.3645L21.8981 15.392L16.1194 12.078H22.7923L22.793 9.80099ZM11.8394 14.036C11.43 14.036 11.0245 13.9559 10.6462 13.8003C10.2679 13.6447 9.9242 13.4166 9.63465 13.1291C9.34509 12.8415 9.1154 12.5001 8.95867 12.1243C8.80194 11.7486 8.72124 11.3459 8.7212 10.9391C8.72115 10.5324 8.80175 10.1297 8.95839 9.75386C9.11503 9.37808 9.34465 9.03662 9.63413 8.74899C9.92361 8.46135 10.2673 8.23318 10.6455 8.07749C11.0238 7.92179 11.4292 7.84164 11.8387 7.84159C12.6656 7.84149 13.4586 8.16771 14.0434 8.74848C14.6282 9.32924 14.9568 10.117 14.9569 10.9384C14.957 11.7598 14.6286 12.5476 14.0439 13.1286C13.4593 13.7095 12.6663 14.0359 11.8394 14.036Z" fill="#1B1D27"/>
<path d="M28.7053 18.8967V2.98224H31.6458V18.8967H28.7053ZM56.9074 8.0816H59.715V9.4014C60.3121 8.34629 61.7057 7.77413 62.8992 7.77413C64.3811 7.77413 65.5747 8.41228 66.1273 9.57617C66.9887 8.25637 68.1392 7.77413 69.5766 7.77413C71.5884 7.77413 73.5113 8.98298 73.5113 11.8844V18.8967H70.6599V12.4783C70.6599 11.3129 70.0846 10.4333 68.7356 10.4333C67.4749 10.4333 66.723 11.4014 66.723 12.5668V18.8974H63.8059V12.4783C63.8059 11.3129 63.2088 10.4333 61.8816 10.4333C60.599 10.4333 59.8471 11.3797 59.8471 12.5668V18.8974H56.9074V8.0816ZM38.291 19.21C34.9782 19.21 32.5794 16.7684 32.5794 13.4892C32.5794 10.2622 34.9709 7.76326 38.291 7.76326C41.6271 7.76326 44.0025 10.2854 44.0025 13.4892C44.0025 16.7452 41.6022 19.21 38.291 19.21ZM38.291 10.4101C37.4693 10.4113 36.6816 10.7362 36.1008 11.3136C35.5199 11.8909 35.1934 12.6736 35.1928 13.4899C35.1934 14.3061 35.5199 15.0888 36.1008 15.6662C36.6816 16.2436 37.4693 16.5685 38.291 16.5697C39.1125 16.5683 39.9 16.2433 40.4807 15.666C41.0613 15.0886 41.3878 14.306 41.3883 13.4899C41.3878 12.6738 41.0613 11.8912 40.4807 11.3138C39.9 10.7365 39.1125 10.4115 38.291 10.4101ZM50.2827 19.21C46.9699 19.21 44.5711 16.7684 44.5711 13.4892C44.5711 10.2622 46.9626 7.76326 50.2827 7.76326C53.6188 7.76326 55.9942 10.2854 55.9942 13.4892C55.9942 16.7452 53.5925 19.21 50.2827 19.21ZM50.2827 10.3731C49.4515 10.3745 48.6549 10.7032 48.0674 11.2872C47.4799 11.8712 47.1495 12.6628 47.1488 13.4884C47.1495 14.3141 47.4799 15.1057 48.0674 15.6897C48.6549 16.2737 49.4515 16.6024 50.2827 16.6037C51.1138 16.6024 51.9104 16.2737 52.4979 15.6897C53.0854 15.1057 53.4158 14.3141 53.4165 13.4884C53.4158 12.6628 53.0854 11.8712 52.4979 11.2872C51.9104 10.7032 51.1138 10.3745 50.2827 10.3731Z" fill="#1B1D27"/>
</g>
<defs>
<clipPath id="clip0_3_3579">
<rect width="73" height="21.755" fill="white" transform="translate(0.885742 0.0620117)"/>
</clipPath>
</defs>
</svg>
