<svg width="76" height="19" viewBox="0 0 76 19" fill="none" xmlns="http://www.w3.org/2000/svg">
<g clip-path="url(#clip0_3_3560)">
<path d="M26.3489 1.19747C27.2752 1.19747 27.9442 1.72341 27.9442 2.6701C27.9442 3.19604 27.7383 3.87976 27.3781 4.72126L23.4157 14.7141L18.9387 4.3531C18.5785 3.5642 18.4241 2.98566 18.4241 2.40713C18.4241 1.776 18.9387 1.19747 20.0708 1.19747V0.724121H13.4839V1.19747C14.8219 1.19747 15.2336 1.67081 16.0055 3.5116L22.335 18.3957H22.6952L28.6131 3.66938C29.3336 1.93378 30.2599 1.14487 30.9803 1.14487V0.724121H26.4004V1.19747H26.3489ZM0.67041 0.724121V1.19747C2.52297 1.19747 2.93465 1.67081 2.93465 3.24863V14.8193C2.93465 17.2912 2.57443 17.5542 0.67041 17.5542V18.0275H13.6383L15.0792 13.3467L14.719 13.2415C13.3295 16.7653 12.3518 17.2912 9.41859 17.2912H7.6175C5.35326 17.2912 5.25034 17.2386 5.25034 14.3986V3.87976C5.25034 1.72341 5.66202 1.25006 7.92626 1.25006V0.724121H0.67041ZM54.3431 1.19747V0.724121H50.1234L43.9482 14.3986L37.5157 0.724121H33.1931V1.19747C34.9942 1.19747 35.4058 1.776 35.4058 3.45901V14.7667C35.4058 17.2386 34.9427 17.5016 33.1931 17.5016V17.9749H38.442V17.5016C36.6409 17.5016 36.2292 17.2386 36.2292 14.7667V3.45901L42.7646 17.9749H43.1763L49.6602 3.45901V14.7667C49.6602 17.2386 49.3 17.5016 47.2931 17.5016V17.9749H54.3431V17.5016C52.3876 17.5016 52.0788 17.186 52.0788 14.7667V3.19604C52.0788 1.67081 52.542 1.19747 54.3431 1.19747ZM61.2902 3.93235C61.2902 1.51303 61.6504 1.19747 63.5544 1.19747V0.724121H56.6588V1.19747C58.6143 1.19747 58.923 1.51303 58.923 3.93235V14.7667C58.923 17.186 58.5628 17.5016 56.6588 17.5016V17.9749H63.5544V17.5016C61.5989 17.5016 61.2902 17.186 61.2902 14.7667V10.191C61.2902 9.71769 61.496 9.55991 62.0106 9.55991H69.4723C70.0384 9.55991 70.1927 9.77028 70.1927 10.3488V14.7667C70.1927 17.186 69.8325 17.5016 67.9285 17.5016V17.9749H74.8241V17.5016C72.8687 17.5016 72.5599 17.186 72.5599 14.7667V3.93235C72.5599 1.51303 72.9201 1.19747 74.8241 1.19747V0.724121H67.9285V1.19747C69.884 1.19747 70.1927 1.51303 70.1927 3.93235V7.98209C70.1927 8.61322 70.0384 8.771 69.4723 8.771H61.9592C61.4446 8.771 61.2387 8.61322 61.2387 8.19246V3.93235H61.2902Z" fill="#1B1D27"/>
</g>
<defs>
<clipPath id="clip0_3_3560">
<rect width="75.5946" height="17.9871" fill="white" transform="translate(0.00146484 0.460999)"/>
</clipPath>
</defs>
</svg>
