<svg width="122" height="15" viewBox="0 0 122 15" fill="none" xmlns="http://www.w3.org/2000/svg">
<path fill-rule="evenodd" clip-rule="evenodd" d="M45.7023 1.68264C45.7337 0.990562 46.2999 0.424321 47.0234 0.455779C47.7155 0.487237 48.2817 1.05348 48.2503 1.77701C48.2188 2.46908 47.6526 3.00387 46.992 3.00387C46.2685 3.00387 45.7023 2.40616 45.7023 1.68264ZM96.9147 14.2029V12.1267H99.1169V2.62638H96.38V0.518707H101.256V8.44608L103.899 5.92945H102.924V3.8847H108.302V5.92945H106.51L104.339 8.10007L106.604 12.1267H108.649V14.2029H103.206V12.1267H104.276L102.798 9.48418L101.225 10.9941V12.1267H102.609V14.2029H96.9147ZM32.7414 14.2029V12.1267H34.4716V5.92948H32.3954V3.88472H36.6107V5.6149C37.3972 4.79699 38.4982 3.69597 40.1655 3.69597C41.2979 3.69597 42.5562 4.48242 42.5562 5.77219C42.5877 6.40134 42.1473 6.93613 41.5181 6.99905H41.4867C41.0463 7.0305 40.6373 6.77884 40.4486 6.40134C40.3228 6.11822 40.0397 5.92948 39.6936 5.92948C38.278 5.92948 36.8939 7.47091 36.5478 8.41465V12.1581H38.2151V14.2344L32.7414 14.2029ZM82.2546 12.1267V14.2029H87.9484V12.1267H86.596V10.9941L88.2004 9.48418L89.6788 12.1267H88.6092V14.2029H94.0202V12.1267H91.9755L89.7103 8.06857L91.8811 5.898H93.6422V3.85324H88.2634V5.92945H89.2385L86.596 8.44608V0.518707H81.7198V2.62638H84.4568V12.1267H82.2546ZM20.8816 11.5604C20.8816 12.1895 21.322 12.4727 22.1084 12.4727C24.3105 12.4727 26.2923 11.2773 26.2923 9.73583V9.20103L26.0407 9.23253L25.9682 9.24436C24.389 9.50175 20.8816 10.0736 20.8816 11.5604ZM25.2504 7.7318C22.5153 8.19765 18.6474 8.85642 18.6474 11.6862C18.6474 13.5108 19.9686 14.4545 21.8561 14.4545C23.7435 14.4545 25.285 13.7624 26.2602 12.7243V14.2343H29.7835V12.1581H28.3049V7.25068C28.3049 4.9228 26.8893 3.66448 23.8065 3.66448C22.674 3.66448 19.6541 4.13635 19.6541 6.36986V6.49569C19.6855 7.03048 20.1574 7.47091 20.7236 7.43943C21.4288 7.43943 21.5912 7.09395 21.7816 6.68851C21.8546 6.53331 21.9317 6.36933 22.0448 6.21258C22.3279 5.80362 22.8627 5.45758 24.2154 5.45758C25.3479 5.45758 26.1972 5.86654 26.1972 6.96756V7.56527C25.9049 7.62029 25.5861 7.67461 25.2504 7.7318ZM116.513 3.66448C113.555 3.66448 111.165 6.05529 111.165 9.01231C111.165 11.9694 113.555 14.3602 116.513 14.3602C119.469 14.3602 121.861 11.9694 121.861 9.01231C121.861 6.05529 119.469 3.66448 116.513 3.66448ZM113.336 9.01231C113.336 10.7739 114.783 12.221 116.545 12.221C118.306 12.221 119.753 10.7739 119.753 9.01231C119.753 7.25066 118.306 5.8036 116.545 5.8036C114.751 5.83506 113.336 7.25066 113.336 9.01231ZM77.9769 7.43942H72.5974C72.9747 6.30694 74.0443 5.55194 75.2399 5.55194C76.6238 5.55194 77.6304 6.24402 77.9769 7.43942ZM70.1122 9.10667C70.1122 6.30694 72.1256 3.66448 75.2714 3.66448C78.0392 3.66448 80.3044 5.92945 80.3044 8.69773V8.79209V9.23253H72.2824V9.42125C72.2516 11.0885 73.604 12.4727 75.2714 12.4727H75.3344C76.3725 12.5041 77.3791 12.0323 78.0077 11.1829C78.4487 10.6166 78.7315 10.4593 79.1718 10.4593C79.6121 10.4593 79.9901 10.8054 80.0216 11.2773V11.3402C80.0216 12.5985 78.1652 14.4231 75.3659 14.4231C71.8421 14.4231 70.1436 11.7177 70.1122 9.10667ZM44.349 12.1266V14.2028H49.6968V12.1266H48.1868V3.8532H44.3804V5.92941H45.9848V12.1266H44.349ZM1.25141 14.2029V12.1266H2.76139V5.92945H0.779541V3.85323H4.96343V4.35655C5.18364 4.13635 5.74988 3.63303 6.97673 3.63303C8.2036 3.63303 9.11584 4.23072 9.33606 4.57676C9.55628 4.29364 10.5944 3.66448 11.8841 3.66448C13.52 3.66448 15.0929 4.57676 15.0929 6.3384V12.1266H16.4455V14.2029H11.8527V12.1266H13.0481V6.9361C13.0481 6.05528 12.4819 5.67778 11.6011 5.67778C10.4685 5.67778 10.0282 6.30694 10.0282 7.03047V12.1266H11.2235V14.2029H6.75653V12.1266H7.95195V6.99901C7.95195 6.08674 7.38569 5.67778 6.50487 5.67778C5.52967 5.67778 4.96343 6.14965 4.96343 6.99901V12.1266H6.15883V14.2029H1.25141ZM52.7473 12.1266V14.2029H57.6547V12.1266H56.4593V6.99901C56.4593 6.14965 57.1199 5.67778 58.0322 5.67778C58.9445 5.67778 59.4793 6.08674 59.4793 6.99901V12.1266H58.2839V14.2029H62.7509V12.1266H61.5555V7.03047C61.5555 6.30694 61.9644 5.67778 63.0969 5.67778C63.9777 5.67778 64.544 6.05528 64.544 6.9361V12.1266H63.3486V14.2029H67.9415V12.1266H66.5888V6.3384C66.5888 4.57676 64.9844 3.66448 63.3801 3.66448C62.0903 3.66448 61.0522 4.29364 60.832 4.57676C60.6432 4.23072 59.6995 3.63303 58.4726 3.63303C57.2457 3.63303 56.6795 4.13635 56.4593 4.35655V3.85323H52.2755V5.92945H54.2573V12.1266H52.7473Z" fill="#1B1D27"/>
</svg>
