<svg width="79" height="21" viewBox="0 0 79 21" fill="none" xmlns="http://www.w3.org/2000/svg">
<g clip-path="url(#clip0_3_3719)">
<path d="M15.8748 20.5767V5.9621L12.2386 20.5767H8.1249L4.53475 5.91825V20.5767H0V0.922729H7.42184L10.4095 13.3499L13.4338 0.922729H20.7868V20.5767H15.873H15.8748ZM54.0519 20.5767H58.9657V0.922729H51.6123L48.5865 13.3499L45.597 0.922729H38.177V20.5767H42.7118V5.91825L46.3019 20.5767H50.4156L54.0519 5.9621V20.5767ZM27.1223 13.4818V14.138C27.1223 16.6309 28.1127 17.6511 29.4632 17.6511C30.8618 17.6511 31.851 16.6305 31.851 14.138V13.4818C31.851 10.9448 30.8614 9.97031 29.4632 9.97031C28.113 9.97031 27.1223 10.9448 27.1223 13.4818ZM22.4674 13.6538C22.4674 9.22378 25.7672 6.7933 29.3959 6.7933C33.0764 6.7933 36.4991 9.2268 36.4991 13.6576V13.9464C36.4991 18.474 33.076 20.8579 29.3956 20.8579C25.7638 20.8579 22.4632 18.4736 22.4632 13.946V13.6565L22.4674 13.6538ZM73.0731 17.1763H66.1483L65.071 20.5767H60.4414L66.8106 0.922729H72.9559L78.9679 20.5767H74.1031L73.075 17.1763H73.0731ZM69.7392 5.67974L67.3919 13.3983H71.9788L69.7385 5.67974H69.7392Z" fill="#1B1D27"/>
</g>
<defs>
<clipPath id="clip0_3_3719">
<rect width="79" height="20.0335" fill="white" transform="translate(0 0.922729)"/>
</clipPath>
</defs>
</svg>
