<svg width="113" height="24" viewBox="0 0 113 24" fill="none" xmlns="http://www.w3.org/2000/svg">
<g clip-path="url(#clip0_3_3612)">
<path d="M25.7378 5.92255H31.5059C35.6752 5.92255 36.7411 8.41546 36.7411 10.4416C36.7411 12.4678 35.6648 14.9607 31.5059 14.9607H27.9426V22.0894H25.7378V5.92255ZM27.9531 13.0512H30.8685C32.624 13.0512 34.369 12.6481 34.369 10.4522C34.369 8.25634 32.6135 7.85323 30.8685 7.85323H27.9531V13.0512Z" fill="#1B1D27"/>
<path d="M39.6358 5.84827C40.4717 5.84827 41.1509 6.51658 41.1614 7.33341C41.1718 8.16084 40.5135 8.83976 39.6776 8.86098C38.8416 8.88219 38.152 8.2351 38.1206 7.40766C38.1102 6.99395 38.2669 6.60144 38.549 6.30442C38.8207 6.018 39.2178 5.84827 39.6358 5.84827ZM38.6117 11.269H40.6598V22.0999H38.6117V11.269Z" fill="#1B1D27"/>
<path d="M43.0422 11.269H45.1217V12.9451H45.1739C45.8949 11.6721 47.2952 10.9083 48.7685 11.0038C50.8898 11.0038 52.7184 12.2662 52.7184 15.141V22.1105H50.6703V15.7244C50.6703 13.6877 49.4895 12.9345 48.1729 12.9345C46.4488 12.9345 45.1321 14.0271 45.1321 16.5413V22.1105H43.0422V11.269Z" fill="#1B1D27"/>
<path d="M56.5114 17.4429C56.5114 19.3312 58.2878 20.5723 60.2001 20.5723C61.4018 20.5405 62.5199 19.9359 63.1991 18.9599L64.7769 20.148C63.6275 21.6438 61.8093 22.4818 59.9179 22.3863C56.4487 22.3863 54.2961 19.9252 54.2961 16.7004C54.2334 15.194 54.8082 13.7301 55.874 12.6587C56.9399 11.5872 58.4028 10.9932 59.9284 11.0144C63.7842 11.0144 65.2576 13.9316 65.2576 16.7216V17.4535H56.5114V17.4429ZM63.0737 15.7987C63.0214 13.9953 62.0078 12.6693 59.9179 12.6693C58.1311 12.6587 56.6368 14.0271 56.5219 15.7987H63.0737Z" fill="#1B1D27"/>
<path d="M74.6621 14.1544C73.9829 13.3588 72.9902 12.9133 71.9348 12.9451C69.6777 12.9451 68.5178 14.7485 68.5178 16.7853C68.4656 17.7506 68.8104 18.6841 69.4792 19.3843C70.148 20.0844 71.078 20.4769 72.0498 20.4663C73.0738 20.4981 74.056 20.0526 74.7039 19.257L76.1773 20.6997C75.101 21.8241 73.5858 22.4288 72.0289 22.3651C70.4928 22.4394 68.9985 21.8772 67.9118 20.7951C66.825 19.7237 66.2399 18.2386 66.313 16.7216C66.2399 15.194 66.825 13.7089 67.9118 12.6269C68.9985 11.5448 70.4928 10.9614 72.0393 11.0144C73.6172 10.972 75.1428 11.5979 76.24 12.7223L74.6621 14.1544Z" fill="#1B1D27"/>
<path d="M82.3217 10.9932C85.4774 11.0462 88.0062 13.6134 87.9749 16.7428C87.9435 19.8722 85.3625 22.3863 82.1963 22.3651C79.0406 22.3439 76.4805 19.8085 76.4805 16.6791C76.4805 15.1516 77.097 13.6982 78.1942 12.6268C79.3018 11.5554 80.7856 10.972 82.3217 10.9932ZM82.3217 20.4556C84.5265 20.4556 85.9163 18.8962 85.9163 16.6791C85.9163 14.4726 84.5265 12.9132 82.3217 12.9132C80.1169 12.9132 78.7167 14.4726 78.7167 16.6791C78.7167 18.8856 80.1064 20.4556 82.3217 20.4556Z" fill="#1B1D27"/>
<path d="M89.8245 11.269H91.9039V12.9451C92.6249 11.6615 94.0356 10.9083 95.509 11.0038C97.6302 11.0038 99.4589 12.2661 99.4589 15.141V22.1105H97.3794V15.7244C97.3794 13.6876 96.1986 12.9345 94.8924 12.9345C93.1578 12.9345 91.8517 14.0271 91.8517 16.5412V22.1105H89.8349V11.269H89.8245Z" fill="#1B1D27"/>
<path d="M103.315 17.443C103.315 19.3312 105.091 20.5724 107.003 20.5724C108.205 20.5299 109.323 19.9359 110.002 18.9599L111.58 20.1481C110.431 21.6332 108.623 22.4606 106.732 22.3545C103.273 22.3545 101.11 19.8935 101.11 16.6686C101.047 15.1622 101.622 13.6877 102.688 12.6163C103.754 11.5342 105.227 10.9508 106.753 10.9826C110.608 10.9826 112.082 13.8999 112.082 16.6898V17.4218L103.315 17.443ZM109.867 15.7881C109.814 13.9847 108.811 12.6587 106.711 12.6587C104.924 12.6481 103.43 14.0165 103.315 15.7881H109.867Z" fill="#1B1D27"/>
<path fill-rule="evenodd" clip-rule="evenodd" d="M13.2612 1.14886C13.0418 0.883658 12.676 0.820009 12.3835 0.989739L12.1118 1.13825L9.15457 2.84616L9.84424 4.07671L11.7669 2.96285L11.2967 5.57246L12.6656 5.82705L13.1463 3.20684L14.5674 4.92536L15.6332 4.01306L13.4806 1.40346H13.4702L13.2612 1.14886ZM9.11277 23.1608C9.82334 23.1608 10.3981 22.5879 10.3981 21.8878C10.3981 21.1876 9.82334 20.6148 9.11277 20.6148C8.40221 20.6148 7.82749 21.1876 7.82749 21.8878C7.81704 22.5879 8.40221 23.1608 9.11277 23.1608ZM10.8369 16.17L10.3772 18.7902L8.99783 18.5356L9.45761 15.926L7.53491 17.0505L6.83479 15.8199L9.77109 14.112L10.0428 13.9529C10.3354 13.7832 10.7011 13.8468 10.9205 14.112L11.1295 14.3666L13.3135 16.9656L12.2476 17.8885L10.8369 16.17ZM11.955 9.91119L11.4952 12.5314L10.1159 12.2768L10.5757 9.67781L8.66345 10.7917L7.97378 9.56112L10.8996 7.86381V7.8426H10.9205L11.1922 7.68348C11.4848 7.51375 11.8505 7.57739 12.07 7.8426L12.279 8.08659L14.4524 10.6962L13.3866 11.6191L11.955 9.91119ZM2.93715 20.2647H2.9267L2.64457 20.1799C2.34153 20.095 2.14299 19.798 2.16389 19.4797L2.41468 15.9366L3.74176 16.0321L3.58502 18.1855L5.64356 16.764L6.38547 17.8779L4.36872 19.2676L6.42727 19.8722L6.06154 21.1664L2.93715 20.2647ZM16.5946 21.7287L16.5005 22.0363C16.4065 22.3333 16.1348 22.5349 15.8213 22.5137L15.5287 22.4924L15.5078 22.503L15.4974 22.4924L12.2581 22.2697L12.3417 20.9224L14.4942 21.0709L13.0836 19.066L14.1599 18.281L15.6019 20.339L16.2289 18.2598L17.4932 18.6523L16.5946 21.7287ZM20.3982 14.4303L20.5549 14.7167C20.7117 15.0031 20.649 15.3638 20.3982 15.5759L20.1683 15.7775V15.7881H20.1578L17.6395 17.9522L16.7618 16.902L18.4128 15.4805L15.9363 15.0349L16.1766 13.6771L18.674 14.1226L17.6291 12.2132L18.8099 11.5448L20.3982 14.4303ZM17.8381 8.51091L15.6019 9.73085L14.954 8.52152L17.1589 7.3228L15.1421 6.48476L15.6541 5.21178L18.7263 6.47415L18.7367 6.46354L18.7472 6.48476L19.0293 6.60145C19.3323 6.72874 19.4995 7.04699 19.4473 7.36523L19.395 7.68348L18.8203 10.919L17.4828 10.675L17.8381 8.51091ZM2.83266 11.3539L5.31962 11.7782L5.08974 13.1361L2.58187 12.7011L3.64771 14.6106L2.46692 15.2895L0.857709 12.4147L0.700967 12.1389C0.544226 11.8525 0.606922 11.4918 0.84726 11.2796L1.07715 11.0781V11.0675H1.0876L3.57457 8.8928L4.46277 9.94301L2.83266 11.3539ZM6.58401 5.47698L8.23502 7.34402L7.22142 8.26692L5.52861 6.35746L5.14198 8.53213L3.80445 8.28814L4.38962 5.06327L4.45232 4.73441C4.50457 4.41617 4.77625 4.18279 5.08974 4.17218L5.38232 4.16157L5.39277 4.15097L5.40322 4.16157L8.72614 4.02367L8.77839 5.40273L6.58401 5.47698Z" fill="#1B1D27"/>
</g>
<defs>
<clipPath id="clip0_3_3612">
<rect width="111.467" height="23.1152" fill="white" transform="translate(0.61499 0.381897)"/>
</clipPath>
</defs>
</svg>
