<svg width="88" height="21" viewBox="0 0 88 21" fill="none" xmlns="http://www.w3.org/2000/svg">
<g clip-path="url(#clip0_3_3708)">
<path d="M8.42664 7.41819H1.36171C0.666019 7.41819 0.114258 6.87121 0.114258 6.20785V2.18111C0.114258 1.50611 0.678014 0.970764 1.36171 0.970764H7.17919C7.87488 0.970764 8.42664 1.51775 8.42664 2.18111V7.41819Z" fill="#1B1D27"/>
<path d="M16.0039 14.4414H8.43433V7.4079H16.0039C16.7365 7.4079 17.3405 8.00353 17.3405 8.7259V13.1235C17.3405 13.8585 16.7365 14.4414 16.0039 14.4414Z" fill="#1B1D27"/>
<path d="M7.17919 20.9082H1.36171C0.678014 20.9082 0.114258 20.3623 0.114258 19.7V15.669C0.114258 15.0068 0.678014 14.4608 1.36171 14.4608H8.42664V19.7C8.42664 20.3623 7.86289 20.9082 7.17919 20.9082Z" fill="#1B1D27"/>
<path d="M31.4461 6.90042L30.8711 7.43055H30.2962L30.1173 6.75904C30.0789 6.59411 29.9129 6.48809 29.7212 6.48809H26.0415C25.8115 6.48809 25.6327 6.65301 25.6327 6.84151V8.00781C25.6327 8.20808 25.8115 8.36123 26.0415 8.36123H28.2136V13.8275H25.6838C25.4538 13.8275 25.2749 13.9924 25.2749 14.1809V15.3473C25.2749 15.5475 25.4538 15.7006 25.6838 15.7006H33.6437C33.8737 15.7006 34.0525 15.5357 34.0525 15.3473V14.1809C34.0525 13.9806 33.8737 13.8275 33.6437 13.8275H30.7178V9.96345C30.7178 8.87961 31.4078 8.31411 32.7621 8.31411H34.9597C35.1896 8.31411 35.3685 8.14918 35.3685 7.96068V6.67658C35.3685 6.47631 35.1896 6.32316 34.9597 6.32316H33.6564C32.6982 6.31138 31.9444 6.47631 31.4461 6.90042Z" fill="#1B1D27"/>
<path d="M40.8911 6.32257C37.6793 6.32257 35.9587 7.96488 35.9587 11.2986C35.9587 14.6445 37.6666 16.2868 40.8274 16.2868C43.2744 16.2868 44.8549 15.3063 45.2754 13.6272C45.3391 13.3943 45.1352 13.1738 44.8804 13.1738H43.3509C43.1853 13.1738 43.0323 13.2718 42.9686 13.4188C42.7009 14.142 41.9362 14.4851 40.9038 14.4851C39.298 14.4851 38.5332 13.6395 38.4313 11.6663H45.4029C45.7852 7.97715 44.1921 6.32257 40.8911 6.32257ZM38.5078 10.1709C38.75 8.72479 39.5019 8.05068 40.8784 8.05068C42.3441 8.05068 43.0323 8.79833 43.0705 10.1709H38.5078Z" fill="#1B1D27"/>
<path d="M52.889 6.32257C52.0594 6.32257 51.4616 6.49857 50.998 6.92096L50.4246 7.44896H49.9L49.7048 6.76843C49.656 6.6159 49.5095 6.49857 49.3265 6.49857H48.2285C48.009 6.49857 47.8381 6.66283 47.8381 6.85056V18.8655C47.8381 19.0649 48.009 19.2174 48.2285 19.2174H49.839C50.0586 19.2174 50.2294 19.0532 50.2294 18.8655V16.2606L50.022 14.8644L50.5588 14.7471L51.1322 15.275C51.5836 15.674 52.1326 15.8735 52.95 15.8735C55.3169 15.8735 56.7443 14.3012 56.7443 11.098C56.7321 7.89483 55.3169 6.32257 52.889 6.32257ZM52.096 13.9492C50.8882 13.9492 50.2172 13.3508 50.2172 12.2127V9.95991C50.2172 8.82179 50.876 8.22336 52.096 8.22336C53.5722 8.22336 54.2432 9.1151 54.2432 11.0746C54.231 13.0574 53.5722 13.9492 52.096 13.9492Z" fill="#1B1D27"/>
<path d="M86.43 7.70104V6.48733C86.43 6.27892 86.256 6.11954 86.0323 6.11954H81.7188V3.76568C81.7188 3.55727 81.5448 3.39789 81.3211 3.39789H79.6805C79.4568 3.39789 79.2828 3.56953 79.2828 3.76568V6.11954H76.7342C76.5104 6.11954 76.3364 6.29117 76.3364 6.48733V7.70104C76.3364 7.90945 76.5104 8.06883 76.7342 8.06883H79.2828V11.6732C79.2828 14.4316 80.6002 15.7066 83.4339 15.7066H85.7464C85.9701 15.7066 86.1441 15.5349 86.1441 15.3388V14.1251C86.1441 13.9167 85.9701 13.7573 85.7464 13.7573H83.8075C82.2656 13.7573 81.7188 13.1566 81.7188 11.6609V8.08109H86.0323C86.256 8.06883 86.43 7.89719 86.43 7.70104Z" fill="#1B1D27"/>
<path d="M66.4515 13.8156H63.9592V3.169C63.9592 2.96677 63.7882 2.81213 63.5683 2.81213H58.6815C58.4616 2.81213 58.2906 2.97867 58.2906 3.169V4.34666C58.2906 4.54889 58.4616 4.70354 58.6815 4.70354H61.5647V13.8156H58.3272C58.1073 13.8156 57.9363 13.9821 57.9363 14.1725V15.3501C57.9363 15.5523 58.1073 15.707 58.3272 15.707H66.4515C66.6714 15.707 66.8424 15.5404 66.8424 15.3501V14.1725C66.8424 13.9702 66.6714 13.8156 66.4515 13.8156Z" fill="#1B1D27"/>
<path d="M73.497 2.66168H71.2859C71.0648 2.66168 70.8928 2.83145 70.8928 3.02546V4.5655C70.8928 4.77164 71.0648 4.92929 71.2859 4.92929H73.497C73.7181 4.92929 73.89 4.75952 73.89 4.5655V3.02546C73.8778 2.81932 73.7058 2.66168 73.497 2.66168Z" fill="#1B1D27"/>
<path d="M73.7953 13.8772V6.68635C73.7953 6.48021 73.6233 6.32257 73.4022 6.32257H68.4519C68.2307 6.32257 68.0588 6.49234 68.0588 6.68635V7.88685C68.0588 8.093 68.2307 8.25063 68.4519 8.25063H71.3877V13.8772H68.4519C68.2307 13.8772 68.0588 14.0469 68.0588 14.241V15.4415C68.0588 15.6476 68.2307 15.8053 68.4519 15.8053H76.8048C77.0259 15.8053 77.1979 15.6355 77.1979 15.4415V14.241C77.1979 14.0348 77.0259 13.8772 76.8048 13.8772H73.7953Z" fill="#1B1D27"/>
</g>
<defs>
<clipPath id="clip0_3_3708">
<rect width="87" height="19.9375" fill="white" transform="translate(0.114258 0.970764)"/>
</clipPath>
</defs>
</svg>
