<svg width="92" height="18" viewBox="0 0 92 18" fill="none" xmlns="http://www.w3.org/2000/svg">
<g clip-path="url(#clip0_3_3601)">
<path d="M39.4321 17.4544H36.1255L28.8993 10.0679H27.5522V17.4544H25.1028V0.218872H33.3084C36.7622 0.218872 38.8197 2.06552 38.8197 5.14336C38.8197 8.2212 36.7622 10.0676 33.3084 10.0676H32.0838L39.4321 17.4544ZM36.3704 5.14336C36.3704 3.39537 35.3904 2.31187 33.3084 2.31187H27.5522V7.97485H33.3084C35.3904 7.97485 36.3704 6.89164 36.3704 5.14336ZM45.7037 17.8238C41.7845 17.8238 39.3348 14.8937 39.3348 11.0527C39.3348 7.2117 41.7845 4.28155 45.5812 4.28155C48.6429 4.28155 50.4802 6.00517 51.2884 8.56592C51.5824 9.5261 51.7049 10.5847 51.7049 11.6681V11.9145H41.6864C41.7598 13.9826 43.2787 15.9769 45.7037 15.9769C47.7856 15.9769 48.741 14.7707 48.9369 13.8842H51.4599C50.872 15.9772 48.9125 17.8238 45.7037 17.8238ZM41.6864 10.0676H49.3533C49.2309 7.85182 48.0552 6.1282 45.5812 6.1282C43.1072 6.1282 41.7598 7.97457 41.6864 10.0676ZM51.8259 6.62091V4.65122H54.8879V1.69613H57.2394V4.65094H60.5461V6.62062H57.2394V14.3766C57.2394 15.2384 57.4844 15.5338 58.3416 15.5338H60.5461V17.4544H57.8518C55.6227 17.4544 54.8879 16.3463 54.8879 14.3766V6.62034L51.8259 6.62091ZM67.307 4.28155C71.2262 4.28155 73.798 7.2117 73.798 11.0527C73.798 14.8937 71.2262 17.8238 67.307 17.8238C63.3878 17.8238 60.8157 14.8937 60.8157 11.0527C60.8157 7.2117 63.3878 4.28155 67.307 4.28155ZM67.307 6.25124C64.6371 6.25124 63.1672 8.46727 63.1672 11.0527C63.1672 13.6381 64.6371 15.8539 67.307 15.8539C69.9769 15.8539 71.4465 13.6378 71.4465 11.0527C71.4465 8.46756 69.9769 6.25124 67.307 6.25124ZM81.3278 4.28155C85.247 4.28155 87.8188 7.2117 87.8188 11.0527C87.8188 14.8937 85.247 17.8238 81.3278 17.8238C77.4086 17.8238 74.8367 14.8937 74.8367 11.0527C74.8367 7.2117 77.4086 4.28155 81.3278 4.28155ZM81.3278 6.25124C78.6579 6.25124 77.188 8.46727 77.188 11.0527C77.188 13.6381 78.6579 15.8539 81.3278 15.8539C83.9977 15.8539 85.4676 13.6378 85.4676 11.0527C85.4676 8.46756 83.9977 6.25124 81.3278 6.25124ZM91.5311 0.219156V17.4544H89.1796V0.218872L91.5311 0.219156ZM11.5708 1.02682C11.5708 0.920715 11.5499 0.815654 11.5093 0.717629C11.4687 0.619605 11.4092 0.530538 11.3341 0.455513C11.2591 0.380489 11.17 0.320976 11.072 0.280373C10.974 0.23977 10.8689 0.218872 10.7628 0.218872H1.60726C1.50114 0.218872 1.39605 0.23978 1.29801 0.2804C1.19997 0.321021 1.11089 0.380559 1.03586 0.455614C0.960829 0.530668 0.901322 0.619769 0.860736 0.717826C0.82015 0.815883 0.799279 0.920975 0.799316 1.0271V4.79722C0.799316 5.0115 0.884439 5.217 1.03596 5.36852C1.18748 5.52004 1.39298 5.60516 1.60726 5.60516H10.7631C10.8692 5.60516 10.9743 5.62606 11.0723 5.66667C11.1703 5.70727 11.2594 5.76678 11.3344 5.84181C11.4094 5.91683 11.4689 6.0059 11.5096 6.10392C11.5502 6.20195 11.5711 6.30701 11.5711 6.41311V7.49008C11.5711 7.70436 11.4859 7.90987 11.3344 8.06139C11.1829 8.2129 10.9774 8.29803 10.7631 8.29803H4.83875C4.62447 8.29803 4.41897 8.38315 4.26745 8.53467C4.11593 8.68619 4.03081 8.89169 4.03081 9.10597V12.8758C4.03081 13.0901 4.11593 13.2956 4.26745 13.4471C4.41897 13.5986 4.62447 13.6838 4.83875 13.6838H10.7631C10.9774 13.6838 11.1829 13.7689 11.3344 13.9204C11.4859 14.0719 11.5711 14.2774 11.5711 14.4917V16.6459C11.5711 16.8602 11.6561 17.0656 11.8076 17.2171C11.959 17.3686 12.1645 17.4538 12.3787 17.4539H16.1488C16.2549 17.4539 16.36 17.433 16.458 17.3924C16.556 17.3518 16.6451 17.2923 16.7201 17.2172C16.7952 17.1422 16.8547 17.0531 16.8953 16.9551C16.9359 16.8571 16.9568 16.752 16.9568 16.6459V12.8755C16.9568 12.7694 16.9359 12.6644 16.8953 12.5663C16.8547 12.4683 16.7952 12.3792 16.7201 12.3042C16.6451 12.2292 16.556 12.1697 16.458 12.1291C16.36 12.0885 16.2549 12.0676 16.1488 12.0676H12.3787C12.1644 12.0676 11.9589 11.9825 11.8074 11.8309C11.6559 11.6794 11.5708 11.4739 11.5708 11.2596V10.1824C11.5708 9.96815 11.656 9.76272 11.8075 9.61126C11.959 9.4598 12.1645 9.37472 12.3787 9.37472H16.1488C16.3631 9.37472 16.5686 9.2896 16.7201 9.13808C16.8717 8.98656 16.9568 8.78106 16.9568 8.56678V4.79694C16.9568 4.58266 16.8717 4.37715 16.7201 4.22563C16.5686 4.07412 16.3631 3.98899 16.1488 3.98899H12.3787C12.1644 3.98899 11.9589 3.90387 11.8074 3.75235C11.6559 3.60083 11.5708 3.39533 11.5708 3.18105V1.02682Z" fill="#1B1D27"/>
</g>
<defs>
<clipPath id="clip0_3_3601">
<rect width="91" height="17.8598" fill="white" transform="translate(0.657471 0.00958252)"/>
</clipPath>
</defs>
</svg>
