<svg width="79" height="23" viewBox="0 0 79 23" fill="none" xmlns="http://www.w3.org/2000/svg">
<path d="M22.85 15.8581C23.3351 16.1077 24.1974 16.4464 25.0238 16.4286C25.7783 16.4286 26.1735 16.0185 26.1735 15.5372C26.1735 15.0558 25.8861 14.7349 25.0777 14.2714C24.0716 13.7009 23.3171 12.8986 23.3171 11.8467C23.3171 9.99262 24.916 8.67333 27.2514 8.67333C28.2754 8.67333 29.0659 8.86944 29.497 9.11903L28.8862 10.991C28.3652 10.7592 27.8083 10.6344 27.2335 10.6344C26.4789 10.6344 25.9939 10.9732 25.9939 11.508C25.9939 11.9359 26.3352 12.239 27.0179 12.5955C28.0598 13.1839 28.9222 13.9861 28.9222 15.1271C28.9222 17.2309 27.1975 18.4254 24.8082 18.4075C23.7123 18.3897 22.6883 18.1044 22.1853 17.7479C22.2033 17.7479 22.85 15.8581 22.85 15.8581ZM29.4611 18.3362L32.048 4.9294H34.7068L33.6828 10.1174L33.7188 10.0818C34.4374 9.24383 35.3536 8.6555 36.5393 8.6555C37.9226 8.6555 38.713 9.54691 38.713 11.0267C38.713 11.4902 38.6412 12.2211 38.5154 12.8095L37.4734 18.3184H34.8146L35.8207 12.9699C35.8925 12.6134 35.9285 12.132 35.9285 11.7754C35.9285 11.2049 35.6949 10.7771 35.1021 10.7771C34.2577 10.7771 33.3415 11.9002 33.0002 13.6474L32.1199 18.3184L29.4611 18.3362ZM48.3422 12.3459C48.3422 15.6263 46.2223 18.4075 43.0785 18.4075C40.6891 18.4075 39.4136 16.7673 39.4136 14.7171C39.4136 11.5258 41.5335 8.6555 44.7312 8.6555C47.2284 8.6555 48.3422 10.4561 48.3422 12.3459ZM42.1443 14.6636C42.1443 15.6263 42.5216 16.3929 43.4378 16.3929C44.839 16.3929 45.6295 13.897 45.6295 12.2746C45.6295 11.4902 45.3241 10.6879 44.3719 10.6879C42.9348 10.6701 42.1443 13.1482 42.1443 14.6636ZM47.7134 22.0623L49.5638 12.3994C49.7794 11.3119 49.995 9.90347 50.1027 8.9051H52.4561L52.2945 10.4027H52.3304C53.049 9.40428 54.091 8.74464 55.1509 8.74464C57.0911 8.74464 57.8815 10.2957 57.8815 12.0607C57.8815 15.2698 55.8335 18.4432 52.7077 18.4432C52.0609 18.4432 51.4501 18.3362 51.1447 18.0866H51.0908L50.3543 22.0623H47.7134ZM51.504 16.0364C51.7914 16.2681 52.1148 16.4108 52.5999 16.4108C54.0909 16.4108 55.1149 13.9861 55.1149 12.2746C55.1149 11.5615 54.8634 10.8127 54.055 10.8127C53.1208 10.8127 52.2585 11.9002 51.9531 13.5583L51.504 16.0364ZM57.9714 18.3362L59.7679 8.9051H62.4446L60.6302 18.3362H57.9714ZM61.4206 7.92454C60.6661 7.92454 60.1631 7.28273 60.1631 6.49829C60.1631 5.64253 60.8457 4.91158 61.6901 4.91158C62.4985 4.91158 63.0195 5.53556 63.0195 6.30218C63.0015 7.28273 62.2829 7.90671 61.4565 7.90671C61.4565 7.92454 61.4206 7.92454 61.4206 7.92454ZM62.9476 18.3362L64.3489 10.884H63.1093L63.4866 8.9051H64.7262L64.798 8.42373C65.0136 7.31838 65.4268 6.17738 66.343 5.4286C67.0616 4.82244 67.9958 4.53719 68.9479 4.53719C69.5946 4.53719 70.0797 4.62633 70.3851 4.76895L69.8641 6.83702C69.5946 6.74788 69.3072 6.6944 69.0198 6.6944C68.1395 6.6944 67.6005 7.53232 67.4389 8.44156L67.349 8.92292H69.1994L68.8401 10.9019H67.0077L65.6064 18.354L62.9476 18.3362ZM72.5229 8.9051L72.9541 13.1304C73.0439 13.8792 73.1158 14.6101 73.1876 15.3589H73.2235C73.4391 14.8597 73.6367 14.1288 74.014 13.1126L75.6308 8.9051H78.4154L75.1637 15.8046C74.014 18.1758 72.8822 19.9051 71.6786 21.0283C70.7264 21.9019 69.6126 22.3476 69.0737 22.4545L68.3371 20.2082C68.7862 20.0477 69.3431 19.816 69.8461 19.4594C70.4569 19.0315 70.9779 18.461 71.3013 17.8727C71.3732 17.7301 71.3911 17.6409 71.3552 17.4626L69.7563 8.88727C69.7204 8.90509 72.5229 8.9051 72.5229 8.9051ZM13.0951 2.98613L12.4484 3.18224C12.3765 2.91482 12.2687 2.66523 12.143 2.41563C11.6759 1.54205 11.0112 1.07852 10.2027 1.07852C10.1489 1.07852 10.095 1.07851 10.0411 1.09634C10.0231 1.06068 9.98717 1.04286 9.9692 1.0072C9.60991 0.632806 9.16078 0.454529 8.62184 0.454529C7.56191 0.490185 6.51995 1.23897 5.6756 2.57608C5.08276 3.52098 4.61567 4.69764 4.48992 5.62471L2.42396 6.26652C1.81315 6.46263 1.79519 6.48046 1.72333 7.05096C1.66943 7.47884 0.0705566 19.7268 0.0705566 19.7268L13.3107 21.991V2.9683C13.2029 2.9683 13.149 2.9683 13.0951 2.98613ZM10.0411 3.93103L7.81342 4.62633C8.029 3.80623 8.44219 2.98613 8.94521 2.45128C9.12486 2.25517 9.39433 2.02341 9.69973 1.89861C9.98717 2.50477 10.0411 3.3427 10.0411 3.93103ZM8.60387 1.16766C8.81945 1.14983 9.053 1.22114 9.23265 1.32811C8.92724 1.48856 8.65777 1.7025 8.42422 1.9521C7.75952 2.66522 7.23854 3.77057 7.04093 4.84026L5.19055 5.41077C5.56781 3.73492 6.96907 1.22114 8.60387 1.16766ZM6.55588 10.7236C6.62774 11.8467 9.59194 12.0785 9.75363 14.6993C9.87938 16.7673 8.65777 18.1758 6.87925 18.2827C4.74143 18.4254 3.57371 17.1774 3.57371 17.1774L4.02283 15.2698C4.02283 15.2698 5.20851 16.1612 6.14269 16.0899C6.75349 16.0542 6.98704 15.555 6.95111 15.1984C6.86128 13.7365 4.45399 13.8257 4.2923 11.4367C4.16655 9.42211 5.49595 7.37187 8.44219 7.19359C9.57398 7.12227 10.1489 7.40753 10.1489 7.40753L9.48415 9.90348C9.48415 9.90348 8.72963 9.56474 7.84935 9.61822C6.55588 9.70737 6.53791 10.5275 6.55588 10.7236ZM10.7417 3.71709C10.7417 3.18224 10.6698 2.45128 10.4183 1.80947C11.2088 1.95209 11.604 2.86134 11.7837 3.39618C11.7657 3.39618 10.7417 3.71709 10.7417 3.71709ZM13.6879 21.9553L19.1852 20.6004C19.1852 20.6004 16.8138 4.7333 16.8138 4.62633C16.7959 4.53719 16.724 4.46587 16.6162 4.44805C16.5443 4.44805 14.9994 4.41239 14.9994 4.41239C14.9994 4.41239 14.0652 3.50315 13.7059 3.16441V21.9553H13.6879Z" fill="#1B1D27"/>
</svg>
