<svg width="111" height="21" viewBox="0 0 111 21" fill="none" xmlns="http://www.w3.org/2000/svg">
<g clip-path="url(#clip0_3_3582)">
<path d="M3.21892 13.5604C4.57046 13.5604 5.66611 12.4674 5.66611 11.1191C5.66611 9.77085 4.57046 8.67786 3.21892 8.67786C1.86737 8.67786 0.771729 9.77085 0.771729 11.1191C0.771729 12.4674 1.86737 13.5604 3.21892 13.5604Z" fill="#1B1D27"/>
<path d="M10.5627 13.5604C11.9142 13.5604 13.0099 12.4674 13.0099 11.1191C13.0099 9.77085 11.9142 8.67786 10.5627 8.67786C9.21112 8.67786 8.11548 9.77085 8.11548 11.1191C8.11548 12.4674 9.21112 13.5604 10.5627 13.5604Z" fill="#1B1D27"/>
<path opacity="0.2" d="M3.21892 20.8885C4.57046 20.8885 5.66611 19.7955 5.66611 18.4472C5.66611 17.0989 4.57046 16.0059 3.21892 16.0059C1.86737 16.0059 0.771729 17.0989 0.771729 18.4472C0.771729 19.7955 1.86737 20.8885 3.21892 20.8885Z" fill="#1B1D27"/>
<path opacity="0.2" d="M17.8986 20.8885C19.2502 20.8885 20.3458 19.7955 20.3458 18.4472C20.3458 17.0989 19.2502 16.0059 17.8986 16.0059C16.5471 16.0059 15.4514 17.0989 15.4514 18.4472C15.4514 19.7955 16.5471 20.8885 17.8986 20.8885Z" fill="#1B1D27"/>
<path d="M10.5627 20.8885C11.9142 20.8885 13.0099 19.7955 13.0099 18.4472C13.0099 17.0989 11.9142 16.0059 10.5627 16.0059C9.21112 16.0059 8.11548 17.0989 8.11548 18.4472C8.11548 19.7955 9.21112 20.8885 10.5627 20.8885Z" fill="#1B1D27"/>
<path d="M17.8986 13.5604C19.2502 13.5604 20.3458 12.4674 20.3458 11.1191C20.3458 9.77085 19.2502 8.67786 17.8986 8.67786C16.5471 8.67786 15.4514 9.77085 15.4514 11.1191C15.4514 12.4674 16.5471 13.5604 17.8986 13.5604Z" fill="#1B1D27"/>
<path opacity="0.2" d="M3.21892 6.24004C4.57046 6.24004 5.66611 5.14704 5.66611 3.79876C5.66611 2.45048 4.57046 1.35748 3.21892 1.35748C1.86737 1.35748 0.771729 2.45048 0.771729 3.79876C0.771729 5.14704 1.86737 6.24004 3.21892 6.24004Z" fill="#1B1D27"/>
<path opacity="0.2" d="M10.5627 6.24004C11.9142 6.24004 13.0099 5.14704 13.0099 3.79876C13.0099 2.45048 11.9142 1.35748 10.5627 1.35748C9.21112 1.35748 8.11548 2.45048 8.11548 3.79876C8.11548 5.14704 9.21112 6.24004 10.5627 6.24004Z" fill="#1B1D27"/>
<path opacity="0.2" d="M17.8986 6.24004C19.2502 6.24004 20.3458 5.14704 20.3458 3.79876C20.3458 2.45048 19.2502 1.35748 17.8986 1.35748C16.5471 1.35748 15.4514 2.45048 15.4514 3.79876C15.4514 5.14704 16.5471 6.24004 17.8986 6.24004Z" fill="#1B1D27"/>
<path d="M35.1696 19.3975C35.8624 19.3975 36.4253 19.3328 37.0965 19.2032V16.6979C36.6851 16.8491 36.2305 16.8923 35.7975 16.8923C34.7367 16.8923 34.347 16.3739 34.347 15.3805V10.2835H37.0965V7.77826H34.347V4.06354H31.316V7.77826H29.3459V10.2835H31.316V15.6612C31.316 18.0369 32.5717 19.3975 35.1696 19.3975Z" fill="#1B1D27"/>
<path d="M42.0465 19.3975C43.6702 19.3975 44.7527 18.8576 45.294 18.0153C45.3373 18.3825 45.4672 18.8792 45.6404 19.1816H48.3682C48.2167 18.6632 48.1084 17.8425 48.1084 17.3026V11.385C48.1084 8.94449 46.3548 7.56226 43.3888 7.56226C41.1372 7.56226 39.3836 8.40456 38.4094 9.6356L40.1414 11.3418C40.9208 10.4779 41.9166 10.0243 43.129 10.0243C44.6012 10.0243 45.2507 10.5211 45.2507 11.2554C45.2507 11.8817 44.8177 12.3137 42.4795 12.3137C40.228 12.3137 37.9548 13.2423 37.9548 15.834C37.9548 18.2313 39.6867 19.3975 42.0465 19.3975ZM42.6527 17.1082C41.4836 17.1082 40.9424 16.6115 40.9424 15.726C40.9424 14.9485 41.5919 14.4302 42.6744 14.4302C44.4063 14.4302 44.8826 14.3222 45.2507 13.955V14.8837C45.2507 16.1148 44.2115 17.1082 42.6527 17.1082Z" fill="#1B1D27"/>
<path d="M50.0786 6.33124H53.2394V3.50201H50.0786V6.33124ZM50.1435 19.1816H53.1745V7.77826H50.1435V19.1816Z" fill="#1B1D27"/>
<path d="M55.3826 19.1816H58.4135V3.84753H55.3826V19.1816Z" fill="#1B1D27"/>
<path d="M64.7133 19.3975C68.0474 19.3975 69.7577 17.6482 69.7577 15.8124C69.7577 14.1494 68.9134 12.9184 66.1422 12.4216C64.1938 12.0761 62.9814 11.6441 62.9814 10.9746C62.9814 10.3915 63.6742 9.98115 64.8432 9.98115C65.8824 9.98115 66.7484 10.3267 67.3979 11.0826L69.3247 9.46282C68.3505 8.25338 66.7484 7.56226 64.8432 7.56226C61.9206 7.56226 60.102 9.11726 60.102 11.0178C60.102 13.0912 62.0071 14.0198 64.0639 14.387C65.7742 14.6894 66.7268 15.0133 66.7268 15.7476C66.7268 16.3739 66.0556 16.8923 64.7783 16.8923C63.5226 16.8923 62.5484 16.3091 62.0937 15.4453L59.5391 16.6547C60.1669 18.2097 62.3102 19.3975 64.7133 19.3975Z" fill="#1B1D27"/>
<path d="M76.5338 19.3975C78.6988 19.3975 80.2576 18.5337 81.4266 16.5899L79.0019 15.3589C78.5472 16.266 77.8112 16.8923 76.5338 16.8923C74.607 16.8923 73.5678 15.3373 73.5678 13.4583C73.5678 11.5794 74.672 10.0675 76.5338 10.0675C77.7029 10.0675 78.4823 10.6939 78.9369 11.6441L81.3833 10.3483C80.5606 8.55574 78.9369 7.56226 76.5338 7.56226C72.572 7.56226 70.5369 10.4563 70.5369 13.4583C70.5369 16.7195 73.005 19.3975 76.5338 19.3975Z" fill="#1B1D27"/>
<path d="M86.2545 19.3975C87.8783 19.3975 88.9607 18.8576 89.502 18.0153C89.5453 18.3825 89.6752 18.8792 89.8484 19.1816H92.5762C92.4247 18.6632 92.3164 17.8425 92.3164 17.3026V11.385C92.3164 8.94449 90.5628 7.56226 87.5968 7.56226C85.3453 7.56226 83.5917 8.40456 82.6174 9.6356L84.3494 11.3418C85.1288 10.4779 86.1246 10.0243 87.337 10.0243C88.8092 10.0243 89.4587 10.5211 89.4587 11.2554C89.4587 11.8817 89.0257 12.3137 86.6875 12.3137C84.436 12.3137 82.1628 13.2423 82.1628 15.834C82.1628 18.2313 83.8947 19.3975 86.2545 19.3975ZM86.8607 17.1082C85.6917 17.1082 85.1504 16.6115 85.1504 15.726C85.1504 14.9485 85.7999 14.4302 86.8824 14.4302C88.6143 14.4302 89.0906 14.3222 89.4587 13.955V14.8837C89.4587 16.1148 88.4195 17.1082 86.8607 17.1082Z" fill="#1B1D27"/>
<path d="M94.0981 19.1816H97.1291V3.84753H94.0981V19.1816Z" fill="#1B1D27"/>
<path d="M104.403 19.3975C106.633 19.3975 108.43 18.5121 109.426 16.9355L107.131 15.4669C106.525 16.4171 105.724 16.9355 104.403 16.9355C102.91 16.9355 101.827 16.1148 101.546 14.5166H110.162V13.4583C110.162 10.4563 108.322 7.56226 104.382 7.56226C100.636 7.56226 98.6011 10.4779 98.6011 13.4799C98.6011 17.7562 101.827 19.3975 104.403 19.3975ZM101.654 12.1409C102.13 10.6939 103.126 10.0243 104.447 10.0243C105.94 10.0243 106.85 10.9098 107.153 12.1409H101.654Z" fill="#1B1D27"/>
</g>
<defs>
<clipPath id="clip0_3_3582">
<rect width="110" height="20" fill="white" transform="translate(0.771729 0.939514)"/>
</clipPath>
</defs>
</svg>
