<svg width="101" height="15" viewBox="0 0 101 15" fill="none" xmlns="http://www.w3.org/2000/svg">
<path fill-rule="evenodd" clip-rule="evenodd" d="M53.7509 0.454529H48.5075C47.1616 0.454529 45.9819 1.59237 45.9819 2.88889V12.0196C45.9819 13.3625 47.1148 14.4545 48.5075 14.4545H53.7515C54.4261 14.4545 55.0599 14.2014 55.5372 13.7414C56.0138 13.2814 56.2763 12.67 56.2763 12.0199L56.2769 2.88889C56.2769 1.59208 55.0965 0.454529 53.7509 0.454529ZM53.7927 10.7415C53.7927 11.6553 53.3517 12.0809 52.405 12.0809H49.854C49.3791 12.0809 49.0369 11.9729 48.8071 11.751C48.5777 11.5293 48.466 11.1991 48.466 10.7415V4.16761C48.466 3.26632 48.9206 2.82793 49.8552 2.82793H52.4035C53.3511 2.82793 53.7927 3.25349 53.7927 4.16761V10.7415Z" fill="#1B1D27"/>
<path fill-rule="evenodd" clip-rule="evenodd" d="M12.3871 3.02971L11.8275 0.602115C11.8074 0.516072 11.7303 0.45482 11.6414 0.45482L1.21683 0.454529C1.12763 0.454529 1.05021 0.515489 1.03048 0.601532L0.471717 3.02942C0.454053 3.10671 0.534129 3.17 0.606256 3.13559C1.0296 2.93434 1.49592 2.82875 1.96666 2.82875H5.2218L5.22121 12.8643C5.2215 13.3672 5.09492 13.8686 4.85852 14.3154C4.82495 14.3787 4.87058 14.4545 4.94271 14.4545H7.92052C7.99264 14.4545 8.03797 14.3787 8.00444 14.3151C7.76598 13.8666 7.63818 13.3625 7.63818 12.8568V2.82816H10.8883C11.3603 2.82816 11.8278 2.93405 12.2529 3.13588C12.325 3.1703 12.4051 3.107 12.3871 3.02971Z" fill="#1B1D27"/>
<path fill-rule="evenodd" clip-rule="evenodd" d="M27.018 11.8932C27.0313 11.8185 26.952 11.7593 26.8804 11.7911C26.4547 11.9798 25.9888 12.0805 25.5194 12.0805H20.1616V8.71235L24.3457 8.71318C24.4383 8.71318 24.5185 8.65109 24.5383 8.56416L25.0235 6.42626C25.0505 6.30848 24.9567 6.19677 24.831 6.19677H20.1631L20.1616 2.82836H25.4517C25.9408 2.82836 26.4176 2.93278 26.8533 3.13314C26.9256 3.1664 27.0067 3.1066 26.9925 3.03077L26.5321 0.609692C26.5151 0.519861 26.4334 0.454529 26.3381 0.454529H17.3652C17.2892 0.454529 17.2413 0.534152 17.2802 0.596859C17.5328 1.00256 17.6685 1.46893 17.6685 1.95075V13.0493C17.6685 13.493 17.5507 13.929 17.3299 14.3154C17.2944 14.3781 17.3424 14.4545 17.4168 14.4545H26.3991C26.4953 14.4545 26.5774 14.388 26.5934 14.297L27.018 11.8932Z" fill="#1B1D27"/>
<path fill-rule="evenodd" clip-rule="evenodd" d="M41.1719 14.2997L41.644 11.8499C41.6588 11.7723 41.5739 11.7122 41.5009 11.749C41.2461 11.8773 40.7454 12.0812 40.1392 12.0812L36.3315 12.0806C35.8525 12.0806 35.5082 11.9727 35.2772 11.7511C35.0462 11.5291 34.9336 11.1989 34.9336 10.7413V4.16753C34.9336 3.26655 35.3905 2.82846 36.33 2.82846L40.1334 2.82816C40.7342 2.82816 41.2437 3.0408 41.5024 3.17292C41.5755 3.20997 41.6607 3.14988 41.6458 3.072L41.1719 0.609699C41.1545 0.519863 41.073 0.454529 40.9777 0.454529H34.9762C33.6227 0.454529 32.4363 1.59206 32.4363 2.88883V12.0196C32.4363 13.3395 33.599 14.4545 34.9753 14.4545H40.9777C41.073 14.4545 41.1545 14.3892 41.1719 14.2997Z" fill="#1B1D27"/>
<path fill-rule="evenodd" clip-rule="evenodd" d="M69 0.454529C68.9332 0.454529 68.8858 0.519569 68.9092 0.580818C69.0473 0.942769 69.0741 1.34118 68.9805 1.71946L66.5725 11.4872L64.1673 1.73725C64.0738 1.35693 64.1066 0.946561 64.2442 0.581109C64.2676 0.519861 64.2197 0.45482 64.1528 0.45482H61.252C61.1696 0.45482 61.125 0.548444 61.1779 0.609984C61.3745 0.840105 61.5154 1.11251 61.5873 1.40797L64.4374 13.0283C64.5449 13.464 64.492 13.9211 64.2982 14.3198C64.2681 14.3822 64.3143 14.4545 64.3856 14.4545H68.7628C68.834 14.4545 68.8808 14.3822 68.8496 14.3192C68.6553 13.9211 68.6007 13.4606 68.7082 13.0213L71.555 1.41176C71.628 1.11427 71.7705 0.840397 71.9688 0.610276C72.0217 0.548735 71.9771 0.45482 71.8947 0.45482L69 0.454529Z" fill="#1B1D27"/>
<path fill-rule="evenodd" clip-rule="evenodd" d="M83.5715 13.1941C83.6745 13.5705 83.6533 13.967 83.5174 14.3286C83.4946 14.3895 83.5425 14.4543 83.6099 14.4543L86.5241 14.4545C86.6082 14.4545 86.6522 14.3592 86.597 14.2977C86.4027 14.0811 86.259 13.8221 86.1816 13.5408L82.9828 1.91238C82.8614 1.47065 82.9077 1.00239 83.1042 0.593025C83.1343 0.530629 83.087 0.459195 83.0157 0.459195L78.8502 0.45453C78.7789 0.454238 78.7316 0.524798 78.7605 0.587486C78.9504 0.996267 79.0005 1.47561 78.8814 1.91063L75.6837 13.5344C75.6063 13.8172 75.4626 14.0784 75.2671 14.2977C75.2126 14.3592 75.2571 14.4543 75.3407 14.4543L78.3189 14.4545C78.3868 14.4545 78.4347 14.3895 78.4108 14.3283C78.2749 13.9729 78.2504 13.5644 78.3551 13.1746L78.9387 11.0102L83.2596 12.0529L83.5715 13.1941ZM79.4984 8.9322L80.9402 3.57987L82.6103 9.68389L79.4984 8.9322Z" fill="#1B1D27"/>
<path fill-rule="evenodd" clip-rule="evenodd" d="M98.2294 14.454C99.5971 14.454 100.709 13.362 100.709 12.0192V8.63098C100.709 7.33421 99.5503 6.19644 98.2294 6.19644H94.2187C93.2875 6.19644 92.8537 5.77093 92.8537 4.85745L92.8543 4.16708C92.8543 3.2536 93.2875 2.82807 94.2187 2.82807H99.2251C99.7057 2.82807 100.128 3.02436 100.358 3.15648C100.43 3.19702 100.517 3.13665 100.501 3.05731L100.041 0.609109C100.025 0.519569 99.9446 0.454529 99.8516 0.454529L92.896 0.45482C91.5734 0.45482 90.4146 1.59201 90.4146 2.88903V6.3175C90.4146 7.25959 91.4799 8.7129 92.896 8.7129L96.9056 8.71207C97.8368 8.71207 98.2706 9.13758 98.2706 10.0513V10.7411C98.2706 11.6421 97.8245 12.0801 96.9073 12.0805H91.9265C91.4531 12.0805 91.0266 11.883 90.7943 11.7512C90.7236 11.7109 90.6362 11.7704 90.6512 11.8497L91.1045 14.2991C91.1212 14.3889 91.2009 14.4545 91.2944 14.4545L98.2294 14.454Z" fill="#1B1D27"/>
</svg>
